<svg version="1.1" xmlns="http://www.w3.org/2000/svg" xmlns:xlink="http://www.w3.org/1999/xlink" width="350"
    height="350" viewBox="0 0 400 379.93456924754634">
    <g>
        <path
            d="M155.513 2.299 C 117.533 4.561,82.458 38.132,64.956 88.973 C 63.438 93.380,59.696 117.083,59.696 122.284 C 59.696 123.854,59.620 123.996,58.840 123.886 C 57.476 123.692,57.956 117.639,60.669 100.825 C 62.234 91.122,62.209 91.950,60.932 92.230 C 53.335 93.897,42.509 100.051,38.584 104.934 C 31.013 114.354,17.608 140.552,9.360 162.050 C 3.740 176.698,0.588 215.399,2.848 242.015 C 2.955 243.270,3.226 246.435,3.450 249.049 C 4.481 261.055,6.653 275.013,7.801 277.007 C 8.945 278.995,14.915 288.092,16.347 290.029 C 17.695 291.853,33.179 299.197,45.817 304.007 C 69.954 313.194,105.459 321.067,136.678 324.155 C 155.152 325.982,154.308 325.955,197.909 326.126 C 242.321 326.299,242.148 326.304,253.042 324.434 C 256.274 323.880,261.132 323.358,264.254 323.230 C 269.373 323.020,269.773 322.950,269.901 322.243 C 270.257 320.270,273.326 318.651,278.203 317.865 C 285.586 316.673,304.124 308.190,315.970 300.581 C 322.159 296.605,332.321 288.248,331.319 287.957 C 330.990 287.861,315.795 287.130,261.787 284.610 C 219.977 282.659,227.146 283.556,173.194 273.524 C 162.292 271.496,154.106 270.015,151.141 269.533 C 149.242 269.224,145.699 269.196,138.783 269.436 C 117.494 270.174,115.823 269.933,111.821 265.555 C 106.368 259.587,106.440 251.405,112.026 242.163 C 120.625 227.939,136.062 222.968,157.795 227.424 C 162.747 228.440,178.739 231.443,183.840 232.316 C 234.223 240.934,253.315 243.873,262.738 244.463 C 317.423 247.887,343.491 244.158,370.382 229.065 L 374.144 226.953 374.144 224.570 C 374.144 210.700,364.182 193.312,348.218 179.318 L 345.295 176.756 340.795 177.888 C 332.621 179.946,327.555 180.406,313.043 180.413 C 305.891 180.416,300.161 180.540,300.310 180.689 C 300.458 180.838,302.545 182.010,304.948 183.294 C 310.046 186.018,310.154 186.101,309.551 186.828 C 309.166 187.291,307.203 186.424,296.848 181.215 C 290.112 177.827,283.097 174.550,281.260 173.934 C 278.430 172.986,277.935 172.698,278.028 172.054 C 278.231 170.638,281.478 171.680,291.241 176.298 L 295.599 178.359 301.887 178.766 C 315.892 179.672,337.919 177.925,342.500 175.545 C 342.976 175.297,345.970 173.780,349.154 172.173 C 361.897 165.741,370.972 158.220,374.436 151.219 L 375.677 148.710 382.000 145.377 C 388.942 141.717,389.730 140.977,389.732 138.118 C 389.733 137.229,389.681 136.502,389.617 136.502 C 389.552 136.502,386.686 137.424,383.248 138.552 C 362.412 145.385,325.456 149.285,305.513 146.755 C 289.479 144.722,275.480 142.646,273.289 141.977 C 272.717 141.802,272.624 142.041,272.624 143.679 L 272.624 145.584 266.980 150.756 C 259.368 157.732,260.379 157.189,254.563 157.425 L 249.620 157.626 246.700 159.421 L 243.779 161.217 216.394 161.217 L 189.009 161.217 181.862 159.907 C 167.003 157.183,153.263 152.188,144.464 146.312 C 140.408 143.604,141.725 142.096,145.842 144.734 C 153.589 149.700,164.845 154.125,176.122 156.639 C 187.685 159.217,185.141 159.049,215.170 159.208 L 242.698 159.353 245.608 157.662 C 249.349 155.489,250.694 155.138,255.323 155.133 L 259.125 155.128 264.734 149.983 L 270.342 144.839 270.342 142.559 C 270.342 140.857,270.090 139.776,269.346 138.295 C 268.078 135.772,268.203 135.861,267.204 136.758 C 261.930 141.490,245.002 147.000,227.664 149.628 C 223.061 150.326,190.036 150.435,184.615 149.770 C 173.846 148.449,161.918 142.415,143.359 128.898 L 139.354 125.981 134.266 124.926 C 130.557 124.157,127.674 123.825,123.620 123.698 C 114.100 123.402,111.177 121.085,112.480 114.872 C 113.335 110.796,113.854 110.651,127.653 110.649 C 141.289 110.646,139.913 111.106,159.538 99.986 C 175.408 90.993,183.219 87.373,191.357 85.240 C 197.803 83.551,217.131 83.802,233.080 85.782 C 244.576 87.210,253.050 89.476,262.982 93.778 C 263.451 93.981,264.453 91.544,264.802 89.354 C 265.139 87.233,263.483 85.341,257.491 81.003 L 255.148 79.307 246.110 77.835 C 229.766 75.174,205.504 75.600,185.440 78.902 C 174.227 80.746,168.300 83.032,161.540 88.115 C 151.663 95.543,140.629 100.759,131.556 102.290 C 128.218 102.853,124.905 102.660,124.905 101.901 C 124.905 101.313,125.148 101.256,131.369 100.374 C 139.732 99.187,150.161 94.278,160.496 86.662 C 165.666 82.852,167.225 81.968,171.483 80.438 C 187.169 74.800,223.656 72.501,244.433 75.842 C 252.049 77.067,252.002 77.081,248.602 74.518 C 245.039 71.833,240.260 67.290,238.558 64.971 C 236.868 62.669,230.867 59.158,219.838 54.018 C 199.493 44.538,185.668 41.232,169.392 41.956 C 155.122 42.590,140.772 48.228,125.307 59.277 C 121.273 62.159,120.404 62.501,120.601 61.131 C 120.971 58.556,140.275 47.416,151.068 43.549 C 162.352 39.507,178.325 39.015,193.404 42.246 C 202.437 44.181,222.536 52.555,233.458 58.934 C 236.771 60.869,236.650 60.912,236.397 57.890 C 235.463 46.759,227.607 29.130,221.568 24.615 C 200.455 8.826,177.295 1.002,155.513 2.299 M277.947 7.464 C 265.130 8.831,251.580 13.345,233.365 22.316 C 229.444 24.247,226.236 25.928,226.236 26.052 C 226.236 26.176,227.192 27.902,228.360 29.888 C 233.211 38.129,238.002 51.460,238.019 56.761 C 238.024 58.221,238.567 58.321,242.844 57.650 C 258.038 55.266,271.295 54.373,291.498 54.373 L 309.477 54.373 312.438 55.318 C 314.976 56.129,316.124 56.265,320.471 56.269 C 325.134 56.273,325.814 56.367,328.896 57.434 C 331.468 58.325,332.766 58.568,334.470 58.480 L 336.692 58.365 336.809 56.951 C 337.544 48.095,330.144 31.710,321.483 23.015 C 311.015 12.506,292.543 5.908,277.947 7.464 M271.673 56.539 C 257.060 57.861,239.037 60.076,238.496 60.616 C 238.248 60.864,239.964 63.973,241.192 65.501 C 243.025 67.781,247.543 71.527,254.752 76.744 C 263.744 83.251,266.540 85.961,266.540 88.173 C 266.540 89.582,266.635 89.779,267.205 89.557 C 271.914 87.734,299.108 80.404,307.034 78.823 C 319.086 76.418,347.594 77.777,368.440 81.749 C 373.616 82.735,373.384 82.767,373.384 81.072 C 373.384 74.436,347.130 60.496,334.572 60.465 C 332.089 60.458,330.663 60.230,328.591 59.506 C 326.201 58.671,325.232 58.555,320.635 58.550 C 315.813 58.545,315.144 58.456,312.167 57.414 L 308.935 56.284 291.065 56.343 C 281.236 56.375,272.510 56.464,271.673 56.539 M309.337 80.461 C 303.243 81.561,287.755 85.548,276.877 88.815 C 265.064 92.364,266.317 91.830,265.413 93.698 C 264.161 96.285,263.871 96.400,261.558 95.227 C 251.394 90.077,235.086 86.945,213.118 85.924 C 195.515 85.106,189.733 86.304,174.525 93.918 C 169.549 96.409,167.229 97.682,154.753 104.765 C 141.263 112.424,140.819 112.548,126.768 112.548 C 114.126 112.548,114.422 112.462,114.155 116.198 C 113.847 120.498,115.457 121.481,123.384 121.838 C 127.288 122.014,130.927 122.458,134.920 123.244 C 147.348 125.693,163.814 123.077,207.034 111.791 C 218.802 108.718,228.041 106.934,234.664 106.455 C 247.741 105.511,251.619 105.340,259.506 105.362 C 271.721 105.395,271.649 105.358,274.375 112.928 C 274.939 114.496,275.443 115.832,275.493 115.897 C 275.543 115.962,278.211 115.241,281.423 114.296 C 305.389 107.242,336.011 102.689,359.647 102.667 C 371.859 102.656,385.761 106.161,392.776 111.020 C 394.300 112.076,395.817 110.631,395.817 108.124 C 395.817 103.894,373.247 93.320,359.506 91.113 C 339.738 87.938,322.588 87.494,310.837 89.853 C 300.298 91.969,291.309 93.995,279.228 96.978 C 267.155 99.960,267.681 99.873,267.681 98.889 C 267.681 98.011,267.919 97.928,276.996 95.659 C 313.802 86.460,324.150 85.157,342.966 87.355 C 346.835 87.807,352.139 88.369,354.753 88.604 C 362.558 89.304,371.948 92.054,382.414 96.704 L 386.312 98.436 386.312 95.393 L 386.312 92.350 384.400 90.329 C 380.421 86.121,373.929 84.245,354.753 81.763 C 339.145 79.743,316.856 79.104,309.337 80.461 M351.178 104.608 C 347.434 104.778,344.183 105.005,343.954 105.111 C 343.724 105.218,345.846 105.195,348.669 105.062 C 351.492 104.928,356.882 104.804,360.646 104.786 C 364.819 104.766,366.674 104.656,365.399 104.505 C 362.773 104.194,359.765 104.216,351.178 104.608 M340.024 105.596 C 340.602 105.683,341.458 105.681,341.925 105.591 C 342.393 105.501,341.920 105.429,340.875 105.432 C 339.829 105.435,339.446 105.509,340.024 105.596 M336.031 105.972 C 336.504 106.063,337.188 106.060,337.552 105.965 C 337.915 105.870,337.529 105.795,336.692 105.799 C 335.856 105.804,335.558 105.881,336.031 105.972 M331.849 106.353 C 332.322 106.444,333.006 106.440,333.369 106.345 C 333.733 106.250,333.346 106.175,332.510 106.180 C 331.673 106.184,331.376 106.262,331.849 106.353 M326.426 106.844 C 325.146 107.073,325.085 107.120,326.046 107.142 C 326.673 107.156,327.956 107.031,328.897 106.864 C 330.433 106.590,330.472 106.560,329.278 106.565 C 328.546 106.569,327.262 106.694,326.426 106.844 M248.799 107.135 C 248.556 107.289,251.037 107.369,254.312 107.314 C 263.733 107.154,264.708 106.990,256.654 106.920 C 252.576 106.885,249.041 106.981,248.799 107.135 M266.350 107.215 C 269.689 107.605,270.163 107.845,270.918 109.518 C 271.294 110.352,271.673 110.964,271.759 110.877 C 271.845 110.791,271.563 110.027,271.131 109.181 C 270.244 107.443,268.762 106.811,265.779 106.898 C 264.173 106.945,264.207 106.964,266.350 107.215 M337.072 107.251 C 335.608 107.450,333.983 107.784,333.460 107.992 L 332.510 108.370 333.460 108.195 C 338.784 107.219,343.041 107.112,349.240 107.801 L 350.760 107.970 349.430 107.609 C 347.393 107.057,340.054 106.844,337.072 107.251 M379.623 107.646 C 380.859 108.045,381.941 108.300,382.028 108.213 C 382.199 108.042,378.225 106.820,377.698 106.882 C 377.521 106.903,378.387 107.247,379.623 107.646 M240.684 107.613 C 239.534 107.757,240.646 107.792,243.156 107.692 C 245.665 107.593,247.790 107.446,247.877 107.368 C 248.121 107.147,243.029 107.321,240.684 107.613 M319.772 107.795 C 318.413 108.057,317.728 108.280,318.251 108.290 C 318.774 108.299,320.485 108.082,322.053 107.807 C 323.622 107.531,324.306 107.309,323.574 107.312 C 322.842 107.315,321.131 107.532,319.772 107.795 M233.935 108.262 C 234.720 108.344,236.003 108.344,236.787 108.262 C 237.571 108.180,236.930 108.113,235.361 108.113 C 233.793 108.113,233.151 108.180,233.935 108.262 M230.133 108.627 C 230.499 108.723,231.098 108.723,231.464 108.627 C 231.830 108.531,231.530 108.453,230.798 108.453 C 230.067 108.453,229.767 108.531,230.133 108.627 M326.901 110.291 C 325.699 110.911,324.715 111.504,324.715 111.609 C 324.715 111.778,329.240 109.624,329.626 109.271 C 330.124 108.815,328.800 109.310,326.901 110.291 M385.583 109.651 C 385.970 110.005,390.494 112.158,390.494 111.988 C 390.494 111.775,386.102 109.506,385.689 109.506 C 385.544 109.506,385.496 109.571,385.583 109.651 M217.490 110.837 C 216.549 111.109,216.036 111.346,216.350 111.362 C 216.663 111.379,217.776 111.154,218.821 110.863 C 219.867 110.572,220.380 110.336,219.962 110.337 C 219.544 110.339,218.432 110.564,217.490 110.837 M303.232 110.828 C 302.186 111.097,301.673 111.320,302.091 111.325 C 302.510 111.330,303.707 111.114,304.753 110.845 C 305.798 110.576,306.312 110.353,305.894 110.348 C 305.475 110.343,304.278 110.559,303.232 110.828 M322.387 113.337 L 320.722 114.887 322.529 113.447 C 323.522 112.655,324.335 111.957,324.335 111.897 C 324.335 111.604,323.920 111.911,322.387 113.337 M361.217 112.286 C 361.217 112.380,361.845 112.936,362.613 113.522 C 363.380 114.108,363.888 114.392,363.742 114.155 C 363.441 113.668,361.217 112.022,361.217 112.286 M207.492 113.201 C 206.279 113.519,205.362 113.854,205.453 113.945 C 205.624 114.116,210.331 112.984,210.615 112.704 C 210.896 112.427,209.749 112.609,207.492 113.201 M292.207 113.219 C 290.953 113.547,290.097 113.869,290.306 113.933 C 290.514 113.997,291.882 113.727,293.346 113.333 C 294.810 112.939,295.665 112.618,295.247 112.620 C 294.829 112.621,293.461 112.891,292.207 113.219 M391.635 112.667 C 391.635 112.761,392.263 113.317,393.031 113.902 C 393.799 114.488,394.307 114.773,394.160 114.535 C 393.859 114.049,391.635 112.402,391.635 112.667 M218.346 114.331 C 218.712 114.426,219.311 114.426,219.677 114.331 C 220.043 114.235,219.743 114.157,219.011 114.157 C 218.279 114.157,217.980 114.235,218.346 114.331 M226.711 114.331 C 227.077 114.426,227.676 114.426,228.042 114.331 C 228.408 114.235,228.108 114.157,227.376 114.157 C 226.644 114.157,226.345 114.235,226.711 114.331 M273.252 115.399 C 273.597 116.913,273.596 117.667,273.248 120.145 C 272.847 122.988,273.247 122.424,273.721 119.475 C 274.024 117.597,273.988 116.810,273.548 115.682 C 273.116 114.576,273.050 114.513,273.252 115.399 M365.510 115.970 C 366.094 116.702,367.121 118.048,367.792 118.961 C 369.601 121.424,370.123 122.002,369.381 120.722 C 368.455 119.124,365.847 115.733,365.085 115.137 C 364.735 114.863,364.926 115.238,365.510 115.970 M395.008 115.399 C 395.214 115.817,395.660 116.502,396.001 116.920 L 396.620 117.681 396.247 116.920 C 396.041 116.502,395.595 115.817,395.254 115.399 L 394.635 114.639 395.008 115.399 M197.225 115.863 C 196.013 116.180,195.096 116.515,195.187 116.607 C 195.358 116.777,200.065 115.645,200.349 115.365 C 200.630 115.088,199.483 115.271,197.225 115.863 M209.207 115.947 C 207.893 116.322,206.695 116.765,206.546 116.931 C 206.396 117.096,206.579 117.122,206.951 116.988 C 207.324 116.854,208.693 116.469,209.993 116.133 C 211.294 115.797,212.429 115.451,212.516 115.365 C 212.834 115.052,211.543 115.279,209.207 115.947 M319.322 116.255 C 318.406 117.239,316.542 120.018,317.345 119.202 C 318.034 118.500,320.585 115.209,320.439 115.209 C 320.359 115.209,319.857 115.680,319.322 116.255 M233.840 115.670 C 234.189 115.992,239.163 118.213,239.163 118.047 C 239.163 117.821,235.762 116.132,234.601 115.781 C 234.078 115.624,233.736 115.574,233.840 115.670 M280.418 116.521 C 278.954 117.013,277.928 117.428,278.137 117.445 C 278.346 117.462,279.800 117.065,281.369 116.564 C 282.937 116.062,283.964 115.646,283.650 115.639 C 283.337 115.633,281.882 116.030,280.418 116.521 M332.890 116.943 C 332.262 117.250,332.091 117.395,332.510 117.264 C 334.489 116.645,336.514 116.649,337.540 117.274 L 338.593 117.916 337.696 117.133 C 336.633 116.206,334.561 116.124,332.890 116.943 M201.426 118.849 C 199.952 119.648,200.119 119.924,201.616 119.163 C 203.049 118.434,203.303 118.245,202.820 118.266 C 202.628 118.275,202.001 118.537,201.426 118.849 M239.544 118.402 C 239.544 118.499,240.100 118.969,240.779 119.446 C 241.656 120.061,241.859 120.117,241.476 119.641 C 240.932 118.964,239.544 118.073,239.544 118.402 M338.564 120.056 C 338.585 121.450,338.386 122.216,337.833 122.868 L 337.072 123.764 337.920 123.047 C 338.911 122.208,339.354 120.349,338.873 119.051 C 338.604 118.325,338.541 118.529,338.564 120.056 M183.650 119.421 C 182.291 119.816,181.790 120.054,182.537 119.950 C 184.113 119.733,187.537 118.707,186.692 118.706 C 186.378 118.705,185.010 119.027,183.650 119.421 M397.046 120.152 C 397.046 120.884,397.125 121.183,397.220 120.817 C 397.316 120.452,397.316 119.853,397.220 119.487 C 397.125 119.121,397.046 119.420,397.046 120.152 M329.658 119.912 C 329.658 120.707,332.345 123.574,333.091 123.574 C 333.356 123.574,332.991 123.186,332.281 122.711 C 331.570 122.236,330.689 121.253,330.324 120.525 C 329.893 119.667,329.659 119.451,329.658 119.912 M315.331 122.638 C 314.583 124.214,314.035 125.569,314.114 125.648 C 314.194 125.727,314.887 124.437,315.656 122.782 C 316.424 121.126,316.972 119.772,316.873 119.772 C 316.774 119.772,316.080 121.062,315.331 122.638 M209.221 120.414 C 209.587 120.510,210.185 120.510,210.551 120.414 C 210.917 120.319,210.618 120.240,209.886 120.240 C 209.154 120.240,208.855 120.319,209.221 120.414 M244.309 122.433 C 245.558 123.793,247.062 125.504,247.649 126.236 C 248.576 127.390,248.561 127.335,247.534 125.824 C 246.883 124.865,245.379 123.154,244.193 122.021 L 242.037 119.962 244.309 122.433 M196.564 122.081 L 195.247 123.249 196.673 122.226 C 197.933 121.322,198.343 120.913,197.989 120.913 C 197.929 120.913,197.288 121.438,196.564 122.081 M205.853 122.663 C 205.228 124.157,205.421 125.908,206.288 126.628 C 206.692 126.963,206.670 126.765,206.199 125.819 C 205.628 124.676,205.625 124.421,206.161 122.929 C 206.875 120.946,206.651 120.753,205.853 122.663 M170.722 122.243 C 169.572 122.510,169.059 122.731,169.582 122.735 C 170.105 122.738,171.388 122.521,172.433 122.252 C 174.902 121.618,173.452 121.610,170.722 122.243 M214.172 124.715 C 214.172 125.656,214.246 126.041,214.337 125.570 C 214.427 125.100,214.427 124.330,214.337 123.859 C 214.246 123.389,214.172 123.774,214.172 124.715 M273.677 125.007 C 272.847 127.315,273.102 127.570,273.969 125.300 C 274.335 124.341,274.562 123.485,274.474 123.397 C 274.386 123.308,274.027 124.033,273.677 125.007 M193.140 125.190 C 192.433 126.079,192.156 126.565,192.523 126.270 C 193.215 125.714,194.845 123.574,194.576 123.574 C 194.492 123.574,193.846 124.301,193.140 125.190 M397.807 125.095 C 397.807 125.827,397.885 126.126,397.981 125.760 C 398.076 125.394,398.076 124.796,397.981 124.430 C 397.885 124.064,397.807 124.363,397.807 125.095 M153.422 124.928 C 151.331 125.193,148.764 125.452,147.719 125.503 C 146.236 125.576,146.093 125.631,147.069 125.752 C 148.320 125.906,158.961 124.815,159.276 124.501 C 159.524 124.253,157.674 124.388,153.422 124.928 M371.146 124.525 C 371.153 124.734,371.488 125.589,371.890 126.426 C 372.293 127.262,372.515 127.519,372.385 126.996 C 372.117 125.920,371.126 123.943,371.146 124.525 M142.902 126.349 C 143.424 126.978,146.768 129.388,146.768 129.135 C 146.768 129.030,145.995 128.390,145.051 127.711 C 143.841 126.843,143.476 126.388,143.815 126.173 C 144.136 125.969,143.996 125.865,143.395 125.861 C 142.698 125.857,142.586 125.968,142.902 126.349 M270.784 127.583 C 270.147 128.981,270.269 129.279,270.958 128.008 C 271.279 127.415,271.471 126.858,271.384 126.771 C 271.297 126.684,271.027 127.049,270.784 127.583 M191.352 127.471 C 190.814 128.151,190.057 129.658,190.253 129.658 C 190.345 129.658,190.773 129.059,191.204 128.327 C 191.989 126.997,192.062 126.575,191.352 127.471 M394.106 130.318 C 392.433 131.916,391.749 132.692,392.586 132.043 C 394.072 130.888,397.668 127.359,397.323 127.394 C 397.227 127.404,395.779 128.720,394.106 130.318 M212.414 128.017 C 212.270 128.161,211.429 128.396,210.544 128.540 C 208.979 128.795,208.972 128.803,210.266 128.836 C 210.998 128.855,212.025 128.626,212.548 128.327 C 213.070 128.028,213.313 127.778,213.086 127.770 C 212.860 127.763,212.557 127.874,212.414 128.017 M249.896 129.911 C 250.581 131.200,251.195 132.200,251.262 132.134 C 251.430 131.967,250.005 129.257,249.261 128.327 C 248.926 127.909,249.212 128.621,249.896 129.911 M356.084 131.393 C 356.084 132.933,356.200 133.900,356.342 133.541 C 356.694 132.655,356.708 129.570,356.363 129.030 C 356.209 128.790,356.084 129.853,356.084 131.393 M226.768 131.115 C 224.647 132.656,224.262 133.243,224.438 134.671 L 224.593 135.932 224.654 134.540 C 224.720 133.033,226.101 131.538,228.327 130.566 C 228.954 130.292,229.194 130.061,228.859 130.053 C 228.525 130.045,227.584 130.523,226.768 131.115 M148.669 130.557 C 148.669 130.661,149.183 131.112,149.810 131.559 C 150.437 132.006,150.951 132.286,150.951 132.181 C 150.951 132.076,150.437 131.625,149.810 131.179 C 149.183 130.732,148.669 130.452,148.669 130.557 M233.764 131.547 C 235.643 132.909,236.104 134.517,235.221 136.631 C 234.901 137.396,234.725 138.023,234.830 138.023 C 235.352 138.023,236.161 135.118,235.951 133.998 C 235.723 132.784,233.528 130.418,232.629 130.418 C 232.396 130.418,232.907 130.926,233.764 131.547 M312.396 131.641 C 312.258 132.328,312.084 134.087,312.010 135.551 C 311.936 137.015,311.945 137.700,312.030 137.072 C 312.115 136.445,312.357 134.753,312.568 133.313 C 312.963 130.611,312.842 129.428,312.396 131.641 M346.008 132.178 C 346.008 132.597,347.855 135.361,348.135 135.361 C 348.355 135.361,348.164 135.020,346.880 133.122 C 346.400 132.413,346.008 131.988,346.008 132.178 M152.180 133.166 C 153.309 134.126,155.513 135.501,155.513 135.246 C 155.513 135.160,154.529 134.457,153.327 133.685 C 152.125 132.913,151.609 132.680,152.180 133.166 M267.538 133.689 C 266.937 134.442,265.408 135.729,264.140 136.549 C 261.467 138.277,260.926 138.744,262.562 137.913 C 264.528 136.914,267.824 134.269,268.347 133.270 C 269.028 131.971,268.826 132.076,267.538 133.689 M374.029 134.518 C 374.148 135.831,374.383 137.457,374.551 138.130 C 374.750 138.925,374.781 138.518,374.640 136.965 C 374.521 135.652,374.286 134.026,374.118 133.353 C 373.920 132.558,373.888 132.965,374.029 134.518 M188.167 135.236 C 187.890 136.486,187.683 139.723,187.693 142.663 L 187.711 147.873 185.775 148.011 L 183.840 148.148 185.968 148.219 L 188.096 148.289 188.091 142.681 C 188.088 139.584,188.291 136.241,188.543 135.216 C 188.794 134.195,188.923 133.283,188.829 133.189 C 188.736 133.096,188.438 134.017,188.167 135.236 M389.392 134.063 C 388.682 134.568,388.287 134.981,388.516 134.981 C 388.744 134.981,389.411 134.559,389.998 134.042 C 391.342 132.860,391.072 132.869,389.392 134.063 M330.154 134.819 L 329.087 135.797 330.334 134.929 C 331.432 134.165,331.725 134.115,332.805 134.510 C 333.914 134.916,333.960 134.905,333.292 134.399 C 332.227 133.592,331.366 133.707,330.154 134.819 M252.612 136.027 C 252.717 136.393,253.013 137.420,253.269 138.310 C 253.525 139.201,253.802 139.861,253.886 139.777 C 254.080 139.582,252.860 135.361,252.609 135.361 C 252.505 135.361,252.506 135.661,252.612 136.027 M334.571 136.787 C 334.752 138.100,334.779 138.126,334.904 137.121 C 334.979 136.520,334.890 135.879,334.707 135.695 C 334.516 135.504,334.458 135.970,334.571 136.787 M349.058 135.942 C 349.600 136.595,351.939 137.388,352.570 137.133 C 352.829 137.028,352.693 136.929,352.267 136.912 C 351.840 136.896,350.847 136.553,350.059 136.152 C 349.169 135.698,348.790 135.618,349.058 135.942 M354.183 136.147 C 353.555 136.549,353.237 136.879,353.475 136.880 C 353.713 136.881,354.312 136.546,354.806 136.134 C 355.936 135.193,355.664 135.198,354.183 136.147 M269.962 135.883 C 269.962 136.349,271.455 139.102,271.836 139.337 C 272.036 139.461,271.753 138.745,271.207 137.747 C 270.078 135.683,269.962 135.510,269.962 135.883 M157.605 136.699 C 158.023 137.039,158.707 137.486,159.125 137.691 L 159.886 138.065 159.125 137.446 C 158.707 137.105,158.023 136.658,157.605 136.453 L 156.844 136.080 157.605 136.699 M382.581 136.762 C 381.679 137.081,381.008 137.409,381.090 137.491 C 381.264 137.664,384.791 136.506,384.791 136.276 C 384.791 136.038,384.358 136.133,382.581 136.762 M160.646 138.599 C 161.497 139.297,164.664 140.972,164.068 140.409 C 163.859 140.211,162.833 139.582,161.787 139.012 C 160.741 138.442,160.228 138.256,160.646 138.599 M225.778 138.638 C 226.352 139.711,228.031 140.771,228.825 140.562 C 229.298 140.437,229.249 140.381,228.641 140.348 C 228.187 140.324,227.261 139.750,226.583 139.072 C 225.786 138.275,225.501 138.122,225.778 138.638 M258.935 139.354 C 257.994 139.858,257.395 140.270,257.605 140.270 C 257.814 140.270,258.755 139.858,259.696 139.354 C 260.637 138.850,261.236 138.437,261.027 138.437 C 260.817 138.437,259.876 138.850,258.935 139.354 M330.418 139.354 C 330.941 139.652,331.711 139.896,332.129 139.894 C 332.548 139.892,332.205 139.644,331.369 139.343 C 329.464 138.656,329.204 138.659,330.418 139.354 M232.871 139.514 C 232.672 139.707,231.911 140.048,231.179 140.273 L 229.848 140.682 231.108 140.498 C 232.285 140.326,234.474 139.163,233.621 139.163 C 233.407 139.163,233.069 139.321,232.871 139.514 M208.918 140.857 C 208.405 141.371,207.991 142.098,208.000 142.473 C 208.009 142.890,208.221 142.680,208.546 141.933 C 209.112 140.632,210.335 140.083,211.973 140.396 C 212.485 140.494,212.814 140.428,212.704 140.249 C 212.262 139.535,209.853 139.922,208.918 140.857 M273.004 140.299 C 273.317 140.505,273.988 140.675,274.493 140.679 C 275.713 140.686,275.404 140.470,273.764 140.169 C 272.828 139.997,272.603 140.036,273.004 140.299 M311.480 142.802 L 311.407 145.490 308.689 145.165 C 307.195 144.987,305.783 144.919,305.552 145.014 C 305.322 145.109,305.561 145.215,306.084 145.249 C 306.606 145.283,308.036 145.436,309.260 145.589 C 311.875 145.915,311.879 145.910,311.690 142.546 L 311.553 140.114 311.480 142.802 M166.160 141.633 C 166.160 141.888,170.769 144.187,170.939 144.017 C 171.015 143.940,169.972 143.332,168.619 142.665 C 167.266 141.998,166.160 141.533,166.160 141.633 M214.068 142.611 C 214.068 143.043,213.888 143.770,213.667 144.227 C 213.280 145.029,213.286 145.032,213.857 144.319 C 214.403 143.637,214.695 141.825,214.259 141.825 C 214.154 141.825,214.068 142.179,214.068 142.611 M286.312 142.600 C 287.044 142.775,288.755 143.007,290.114 143.118 L 292.586 143.318 289.734 142.791 C 286.538 142.200,284.048 142.061,286.312 142.600 M173.717 145.251 C 174.632 145.673,175.830 146.108,176.379 146.218 C 176.928 146.328,176.521 146.069,175.475 145.641 C 172.874 144.577,171.673 144.311,173.717 145.251 M242.966 165.558 C 242.966 168.260,233.615 173.025,208.796 182.968 C 191.479 189.906,189.163 190.630,189.829 188.893 C 189.937 188.611,195.221 186.349,201.572 183.866 C 222.893 175.529,238.127 168.616,240.494 166.203 C 241.695 164.979,242.966 164.647,242.966 165.558 M95.588 268.531 C 97.464 277.910,107.298 286.009,118.995 287.808 C 122.169 288.296,122.237 288.327,121.922 289.147 C 121.046 291.430,108.082 287.314,103.183 283.198 C 97.985 278.830,92.343 269.007,93.931 267.092 C 94.559 266.336,95.273 266.956,95.588 268.531 M15.838 294.231 C 13.178 297.171,26.731 305.594,54.943 318.536 C 82.639 331.242,114.209 337.632,155.894 338.971 C 159.553 339.089,170.504 339.455,180.228 339.786 C 224.998 341.309,255.376 336.859,259.897 328.115 C 261.289 325.424,260.786 325.154,256.084 326.064 C 244.469 328.313,245.577 328.258,207.985 328.421 C 161.476 328.623,150.945 328.156,123.954 324.695 C 84.756 319.669,44.971 308.303,20.691 295.195 C 17.253 293.339,16.739 293.237,15.838 294.231 "
            stroke="none" fill="#5b8b3b" fill-rule="evenodd"></path>
        <path
            d="M11.027 297.552 C 10.713 297.621,9.215 297.874,7.698 298.113 L 4.939 298.548 5.036 338.343 L 5.133 378.137 161.502 378.232 C 310.250 378.323,317.871 378.295,317.867 377.662 C 317.862 376.667,311.659 364.170,309.730 361.268 C 304.964 354.099,295.972 346.552,275.971 332.935 L 270.003 328.872 269.887 327.079 L 269.772 325.285 266.160 325.285 L 262.548 325.285 262.338 326.852 C 261.384 334.004,247.047 339.248,222.433 341.448 C 205.206 342.989,151.656 341.585,127.186 338.952 C 102.217 336.265,78.939 331.232,65.779 325.675 C 44.038 316.495,20.653 304.142,15.293 299.006 C 13.620 297.403,12.868 297.147,11.027 297.552 "
            stroke="none" fill="#0444fb" fill-rule="evenodd"></path>
        <path
            d="M146.046 0.432 C 146.397 0.667,146.092 0.705,145.152 0.542 C 144.171 0.373,143.726 0.436,143.726 0.744 C 143.726 1.028,143.430 1.098,142.918 0.935 C 142.420 0.777,142.200 0.824,142.344 1.058 C 142.566 1.417,141.905 1.607,138.783 2.080 C 136.309 2.455,134.160 3.150,134.611 3.428 C 135.115 3.740,133.682 4.179,131.411 4.409 C 129.872 4.564,128.768 5.187,129.095 5.716 C 129.281 6.017,127.019 6.931,126.375 6.814 C 125.613 6.676,125.130 6.904,123.911 7.981 C 123.203 8.606,122.401 9.036,122.129 8.936 C 121.850 8.833,121.742 8.929,121.882 9.155 C 122.018 9.376,121.898 9.525,121.616 9.486 C 120.605 9.347,120.170 9.518,119.385 10.361 C 118.946 10.832,118.426 11.238,118.229 11.264 C 118.032 11.290,117.690 11.333,117.468 11.359 C 117.247 11.385,117.164 11.566,117.284 11.761 C 117.404 11.955,117.303 12.239,117.058 12.390 C 116.780 12.562,116.714 12.500,116.884 12.226 C 117.033 11.985,116.958 11.787,116.717 11.787 C 116.476 11.787,116.192 12.120,116.085 12.526 C 115.975 12.950,115.434 13.365,114.817 13.501 C 114.225 13.631,113.515 14.016,113.239 14.356 C 112.818 14.875,112.823 14.923,113.272 14.653 C 113.645 14.428,113.719 14.471,113.518 14.796 C 113.360 15.052,112.994 15.170,112.705 15.059 C 112.416 14.948,112.003 15.187,111.787 15.589 C 111.570 15.994,111.156 16.230,110.860 16.116 C 110.298 15.901,109.356 17.214,109.773 17.631 C 109.905 17.763,109.813 17.892,109.569 17.918 C 109.325 17.944,108.954 18.009,108.745 18.061 C 108.536 18.113,108.194 18.177,107.985 18.203 C 107.776 18.230,107.605 18.504,107.605 18.814 C 107.605 19.123,106.913 19.729,106.068 20.160 C 105.224 20.591,104.341 21.364,104.106 21.879 C 103.872 22.393,103.451 22.814,103.171 22.814 C 102.891 22.814,102.662 23.049,102.662 23.337 C 102.662 23.960,101.795 24.742,100.971 24.863 C 100.286 24.963,98.826 26.426,99.072 26.766 C 99.164 26.892,99.127 26.912,98.989 26.809 C 98.587 26.509,97.747 27.388,97.945 27.903 C 98.044 28.162,97.698 28.603,97.175 28.883 C 96.652 29.163,96.298 29.513,96.390 29.661 C 96.481 29.808,95.873 30.478,95.038 31.148 C 94.204 31.819,93.606 32.505,93.710 32.673 C 93.813 32.841,93.560 33.284,93.147 33.658 C 92.734 34.032,92.395 34.200,92.395 34.030 C 92.395 33.861,92.053 34.032,91.635 34.411 C 90.700 35.257,90.621 36.025,91.540 35.335 C 91.906 35.060,91.307 35.691,90.209 36.737 C 89.111 37.783,88.213 38.851,88.213 39.110 C 88.213 39.368,87.742 40.014,87.167 40.543 C 86.592 41.073,86.336 41.397,86.597 41.263 C 86.858 41.129,87.072 41.131,87.072 41.267 C 87.072 41.683,85.664 43.332,85.473 43.141 C 85.374 43.042,84.983 43.304,84.603 43.724 C 84.197 44.172,84.097 44.487,84.360 44.487 C 84.658 44.487,84.600 44.805,84.188 45.434 C 83.846 45.955,83.433 46.298,83.268 46.197 C 83.104 46.095,82.868 46.277,82.744 46.600 C 82.595 46.988,82.679 47.105,82.989 46.945 C 83.248 46.811,83.085 47.016,82.628 47.400 C 82.170 47.785,81.679 48.577,81.536 49.162 C 81.394 49.747,81.185 50.133,81.073 50.021 C 80.813 49.761,79.848 50.547,79.848 51.020 C 79.848 51.215,80.062 51.255,80.323 51.107 C 80.762 50.859,80.456 51.225,78.573 53.201 C 78.170 53.624,77.992 54.138,78.157 54.405 C 78.331 54.686,78.287 54.773,78.045 54.624 C 77.826 54.488,77.545 54.642,77.421 54.965 C 77.291 55.304,77.355 55.454,77.574 55.319 C 77.787 55.187,77.758 55.512,77.508 56.061 C 77.263 56.598,76.980 56.954,76.878 56.853 C 76.587 56.562,75.277 58.234,75.506 58.604 C 75.618 58.786,75.519 58.935,75.285 58.935 C 75.051 58.935,74.956 59.090,75.073 59.279 C 75.189 59.468,74.943 60.366,74.524 61.275 C 74.105 62.184,73.855 62.500,73.968 61.977 C 74.156 61.103,74.119 61.118,73.508 62.167 C 72.788 63.401,72.743 63.533,72.671 64.566 C 72.645 64.944,72.367 65.586,72.052 65.992 C 71.490 66.719,71.484 66.719,71.708 65.970 C 71.894 65.345,71.860 65.311,71.515 65.779 C 71.285 66.093,70.829 67.248,70.502 68.346 C 70.175 69.444,69.753 70.342,69.565 70.342 C 69.376 70.342,68.960 70.847,68.641 71.464 C 67.979 72.745,67.910 73.142,68.406 72.836 C 69.080 72.419,68.342 74.140,67.420 75.135 C 66.396 76.240,65.665 77.834,65.962 78.315 C 66.066 78.482,65.908 79.281,65.611 80.089 C 65.315 80.898,65.061 81.307,65.046 80.999 C 64.994 79.907,63.871 82.054,63.721 83.532 C 63.475 85.967,63.062 87.214,62.693 86.633 C 62.483 86.302,62.367 86.278,62.363 86.566 C 62.360 86.810,62.256 87.323,62.131 87.707 C 61.939 88.301,61.972 88.319,62.357 87.833 C 62.743 87.346,62.776 87.365,62.583 87.959 C 62.459 88.342,62.355 88.855,62.352 89.100 C 62.348 89.354,62.189 89.301,61.977 88.973 C 61.662 88.486,61.608 88.500,61.603 89.068 C 61.600 89.434,61.416 89.734,61.194 89.734 C 60.973 89.734,60.897 89.563,61.027 89.354 C 61.156 89.144,60.899 88.973,60.456 88.973 C 59.996 88.973,59.756 89.143,59.895 89.369 C 60.054 89.625,59.794 89.678,59.157 89.518 C 58.584 89.374,58.175 89.432,58.175 89.657 C 58.175 89.869,57.833 89.953,57.414 89.844 C 56.996 89.735,56.654 89.797,56.654 89.983 C 56.654 90.480,54.121 91.760,53.679 91.486 C 53.125 91.144,52.054 91.647,52.342 92.114 C 52.491 92.355,52.405 92.399,52.125 92.226 C 51.856 92.060,51.463 92.209,51.192 92.580 C 50.934 92.932,50.133 93.349,49.411 93.505 C 48.689 93.662,48.136 93.974,48.182 94.198 C 48.228 94.421,48.005 94.704,47.687 94.826 C 47.310 94.971,47.191 94.885,47.347 94.577 C 47.478 94.318,47.358 94.378,47.081 94.710 C 46.469 95.443,44.799 96.395,44.352 96.265 C 43.873 96.127,42.942 96.992,43.171 97.362 C 43.425 97.773,41.923 98.584,41.449 98.292 C 41.251 98.169,40.872 98.418,40.605 98.845 C 40.339 99.271,39.941 99.620,39.722 99.620 C 39.502 99.620,38.559 100.414,37.627 101.386 C 36.694 102.357,36.145 103.031,36.407 102.884 C 37.552 102.240,36.727 103.496,35.076 104.911 C 34.083 105.762,33.488 106.460,33.754 106.461 C 34.110 106.463,34.073 106.715,33.617 107.411 C 33.276 107.932,32.815 108.246,32.593 108.109 C 32.344 107.955,32.280 108.094,32.426 108.473 C 32.599 108.925,32.499 109.025,32.048 108.851 C 31.629 108.691,31.525 108.762,31.719 109.078 C 32.020 109.564,31.024 111.391,30.184 111.892 C 29.912 112.055,29.797 112.468,29.928 112.810 C 30.099 113.255,30.026 113.346,29.673 113.127 C 29.343 112.923,29.236 112.994,29.352 113.342 C 29.448 113.628,28.956 114.448,28.261 115.164 C 27.071 116.389,26.542 117.436,27.372 116.923 C 28.169 116.431,27.204 118.113,25.961 119.384 C 25.250 120.111,24.836 120.763,25.043 120.832 C 25.261 120.904,25.136 121.587,24.745 122.460 C 23.990 124.146,23.417 124.895,23.756 123.753 C 23.924 123.186,23.868 123.212,23.528 123.859 C 23.280 124.330,22.933 124.715,22.756 124.715 C 22.578 124.715,22.427 125.185,22.420 125.760 C 22.407 126.731,21.343 129.171,21.300 128.327 C 21.264 127.609,20.523 129.088,20.094 130.736 C 19.858 131.642,19.434 132.473,19.150 132.582 C 18.867 132.690,18.730 132.932,18.846 133.120 C 18.962 133.307,18.857 133.460,18.613 133.460 C 18.368 133.460,18.271 133.725,18.396 134.050 C 18.521 134.375,18.471 134.547,18.286 134.433 C 18.102 134.318,17.847 134.495,17.720 134.824 C 17.369 135.739,17.456 135.997,17.901 135.361 C 18.215 134.914,18.249 134.974,18.062 135.641 C 17.930 136.109,17.320 136.994,16.706 137.608 C 15.685 138.629,15.136 139.869,15.919 139.385 C 16.101 139.272,15.977 139.938,15.644 140.863 C 15.312 141.789,14.941 142.387,14.821 142.193 C 14.702 141.999,14.302 142.350,13.934 142.974 C 13.434 143.820,13.391 144.108,13.762 144.112 C 14.162 144.117,14.160 144.180,13.751 144.440 C 13.472 144.617,13.253 144.914,13.265 145.100 C 13.324 146.030,12.454 148.372,12.201 147.963 C 11.872 147.432,11.027 149.035,11.027 150.190 C 11.027 151.066,10.251 152.852,9.871 152.852 C 9.445 152.852,8.644 155.041,8.912 155.475 C 9.181 155.911,8.604 157.063,7.291 158.711 C 6.737 159.408,6.485 160.114,6.614 160.609 C 6.867 161.576,6.095 164.310,5.647 164.034 C 5.469 163.923,5.323 164.086,5.323 164.395 C 5.323 164.703,5.157 165.013,4.954 165.082 C 4.751 165.152,4.537 165.637,4.479 166.160 C 4.420 166.683,4.202 167.239,3.992 167.395 C 3.740 167.585,3.742 167.776,3.998 167.966 C 4.257 168.157,4.201 169.628,3.828 172.433 C 3.426 175.458,3.209 176.300,3.044 175.475 C 2.802 174.267,2.384 175.817,2.122 178.897 C 2.069 179.525,1.905 180.409,1.758 180.862 C 1.610 181.314,1.629 181.771,1.799 181.876 C 1.969 181.981,1.900 184.262,1.647 186.946 C 1.393 189.629,1.173 192.082,1.157 192.395 C 1.132 192.902,1.085 192.902,0.729 192.395 C 0.440 191.983,0.382 192.562,0.520 194.487 C 0.634 196.076,0.593 196.689,0.419 196.008 C 0.259 195.380,0.129 207.015,0.131 221.863 C 0.133 236.711,0.262 248.346,0.418 247.719 C 0.586 247.048,0.635 247.754,0.538 249.430 C 0.433 251.242,0.493 252.004,0.704 251.521 C 1.092 250.632,1.373 252.412,1.719 257.950 C 1.836 259.813,2.020 261.481,2.129 261.657 C 2.237 261.833,2.126 261.977,1.882 261.977 C 1.584 261.977,1.530 262.321,1.716 263.023 C 1.869 263.598,2.050 264.582,2.119 265.209 C 2.481 268.484,3.002 269.831,2.855 267.110 C 2.668 263.651,2.907 264.757,3.738 271.191 C 4.196 274.739,4.284 276.458,4.012 276.555 C 3.792 276.633,4.268 277.322,5.069 278.086 C 5.870 278.849,6.448 279.687,6.355 279.946 C 6.124 280.584,7.268 282.510,7.877 282.510 C 8.145 282.510,8.365 282.705,8.365 282.943 C 8.365 283.181,8.664 283.622,9.030 283.922 C 9.396 284.222,9.460 284.345,9.171 284.196 C 8.820 284.014,8.710 284.099,8.839 284.453 C 8.944 284.743,9.207 284.944,9.422 284.898 C 9.638 284.852,9.914 285.075,10.036 285.393 C 10.179 285.768,10.092 285.891,9.787 285.744 C 9.528 285.618,9.701 285.802,10.171 286.150 C 10.642 286.499,11.027 287.021,11.027 287.309 C 11.027 287.597,11.252 287.833,11.527 287.833 C 12.134 287.833,13.485 290.390,13.435 291.445 C 13.349 293.246,13.280 293.510,12.756 294.034 C 12.452 294.338,12.285 294.667,12.384 294.767 C 12.483 294.866,11.192 295.107,9.514 295.302 C 7.836 295.498,6.464 295.522,6.464 295.357 C 6.464 295.192,6.079 295.069,5.608 295.084 C 4.787 295.109,4.783 295.125,5.513 295.463 C 6.046 295.710,5.776 295.746,4.610 295.585 C 3.587 295.443,3.032 295.495,3.171 295.719 C 3.295 295.919,2.974 296.309,2.459 296.585 L 1.521 297.087 1.521 338.658 L 1.521 380.230 161.977 380.227 C 296.386 380.225,322.433 380.141,322.433 379.712 C 322.433 379.429,322.006 378.737,321.483 378.173 C 320.960 377.609,320.532 376.828,320.532 376.437 C 320.532 375.316,320.110 374.506,319.667 374.779 C 319.413 374.936,319.353 374.794,319.505 374.397 C 319.639 374.049,319.610 373.764,319.441 373.764 C 319.032 373.764,318.212 371.953,317.983 370.546 C 317.882 369.926,317.543 369.070,317.229 368.644 C 316.675 367.891,316.665 367.896,316.881 368.821 C 317.025 369.439,316.889 369.306,316.493 368.441 C 316.157 367.709,315.860 366.725,315.831 366.255 C 315.803 365.785,315.641 365.400,315.472 365.400 C 315.303 365.399,315.253 365.256,315.361 365.081 C 315.626 364.652,314.479 363.054,314.082 363.299 C 313.667 363.556,313.276 362.502,313.536 361.826 C 313.648 361.534,313.215 360.758,312.573 360.102 C 311.932 359.446,311.407 358.685,311.407 358.411 C 311.407 358.137,311.065 357.603,310.646 357.224 C 310.228 356.846,309.886 356.686,309.886 356.870 C 309.886 357.053,309.588 356.780,309.223 356.263 C 308.859 355.746,308.559 355.195,308.558 355.038 C 308.556 354.881,308.384 354.738,308.175 354.721 C 307.547 354.667,306.838 353.930,307.063 353.566 C 307.179 353.378,306.769 352.935,306.152 352.581 C 305.534 352.227,304.826 351.612,304.578 351.214 C 304.224 350.647,304.228 350.553,304.593 350.779 C 304.893 350.964,304.963 350.910,304.789 350.629 C 304.640 350.388,304.314 350.190,304.065 350.190 C 303.816 350.190,303.099 349.625,302.471 348.935 C 301.844 348.244,301.568 348.030,301.857 348.459 C 302.147 348.888,301.591 348.410,300.622 347.397 C 299.652 346.383,298.859 345.662,298.859 345.794 C 298.859 345.926,298.512 345.849,298.088 345.622 C 297.664 345.395,297.403 345.069,297.509 344.899 C 297.614 344.728,297.363 344.282,296.949 343.908 C 296.488 343.491,296.198 343.405,296.198 343.685 C 296.198 343.978,295.870 343.897,295.283 343.459 C 294.779 343.083,294.394 342.626,294.427 342.443 C 294.460 342.261,293.778 341.746,292.912 341.300 C 292.045 340.854,290.963 340.063,290.506 339.541 C 290.050 339.020,289.785 338.807,289.917 339.068 C 290.424 340.065,289.505 339.479,288.128 337.928 C 287.339 337.039,286.693 336.530,286.693 336.796 C 286.692 337.516,284.879 336.239,284.585 335.312 C 284.449 334.882,283.876 334.475,283.226 334.345 C 282.608 334.221,281.931 333.800,281.722 333.410 C 281.513 333.019,281.134 332.702,280.880 332.705 C 280.584 332.709,280.623 332.856,280.989 333.115 C 281.496 333.473,281.496 333.499,280.989 333.346 C 280.675 333.252,280.464 332.974,280.519 332.729 C 280.575 332.484,280.116 332.108,279.499 331.893 C 278.882 331.678,278.121 331.111,277.807 330.633 C 277.494 330.154,276.713 329.658,276.071 329.530 C 275.430 329.402,274.905 329.073,274.905 328.799 C 274.905 328.525,274.366 327.983,273.708 327.594 C 273.050 327.205,272.632 327.082,272.780 327.322 C 272.928 327.561,272.867 327.757,272.646 327.757 C 272.401 327.757,272.243 326.718,272.243 325.107 C 272.243 323.019,272.354 322.500,272.765 322.657 C 273.322 322.871,274.525 321.885,274.525 321.214 C 274.525 320.954,275.171 320.887,276.331 321.027 C 277.505 321.169,277.871 321.130,277.376 320.915 C 276.768 320.652,276.743 320.580,277.250 320.559 C 277.599 320.544,278.183 320.418,278.548 320.278 C 279.001 320.104,279.125 320.164,278.937 320.468 C 278.752 320.767,279.011 320.911,279.730 320.907 C 280.589 320.902,280.686 320.822,280.228 320.498 C 279.805 320.199,280.036 320.158,281.121 320.338 C 282.103 320.501,282.503 320.449,282.337 320.181 C 282.192 319.946,282.313 319.866,282.631 319.988 C 282.928 320.102,283.266 319.951,283.381 319.652 C 283.496 319.352,284.202 318.993,284.951 318.852 C 285.699 318.712,286.312 318.427,286.312 318.219 C 286.312 318.012,286.697 317.875,287.167 317.915 C 288.825 318.058,289.596 317.892,289.007 317.519 C 288.449 317.166,290.589 316.374,292.205 316.336 C 293.146 316.314,295.845 314.877,295.057 314.818 C 294.743 314.795,295.166 314.527,295.996 314.223 C 296.825 313.919,297.710 313.749,297.961 313.846 C 298.462 314.038,300.110 312.784,299.784 312.458 C 299.440 312.115,301.884 311.424,302.545 311.678 C 302.994 311.850,303.080 311.777,302.855 311.413 C 302.658 311.093,302.692 311.000,302.949 311.159 C 303.509 311.505,304.563 311.049,304.563 310.460 C 304.563 309.965,305.885 309.375,306.755 309.483 C 307.020 309.515,307.213 309.405,307.185 309.239 C 307.063 308.513,307.262 308.215,307.557 308.681 C 307.808 309.077,308.110 308.973,308.938 308.206 C 309.520 307.666,310.167 307.224,310.375 307.224 C 310.583 307.224,310.998 306.925,311.298 306.559 C 311.598 306.193,311.721 306.130,311.572 306.418 C 311.391 306.769,311.476 306.879,311.829 306.751 C 312.120 306.645,312.308 306.345,312.247 306.085 C 312.178 305.791,312.367 305.699,312.742 305.843 C 313.095 305.978,313.250 305.917,313.113 305.696 C 312.864 305.293,314.439 304.534,314.927 304.822 C 315.270 305.024,316.540 303.825,316.540 303.297 C 316.540 302.832,317.906 302.329,318.533 302.564 C 318.793 302.661,319.110 302.467,319.238 302.133 C 319.366 301.799,319.624 301.620,319.812 301.736 C 319.999 301.851,320.152 301.757,320.152 301.525 C 320.152 300.993,322.024 299.238,322.584 299.245 C 322.815 299.249,322.747 299.417,322.433 299.620 C 322.067 299.856,322.030 299.990,322.330 299.994 C 322.586 299.997,323.076 299.572,323.419 299.049 C 323.762 298.527,324.258 298.099,324.522 298.099 C 324.786 298.099,325.237 297.809,325.524 297.456 C 325.973 296.902,325.966 296.851,325.475 297.089 C 325.162 297.242,325.241 297.146,325.651 296.877 C 326.061 296.608,326.887 295.917,327.486 295.342 C 328.661 294.214,329.084 294.016,328.702 294.772 C 328.570 295.033,328.866 294.777,329.359 294.202 C 329.853 293.626,330.461 293.156,330.710 293.156 C 330.960 293.156,331.272 292.727,331.404 292.202 C 331.549 291.624,332.001 291.158,332.552 291.020 C 333.051 290.895,333.460 290.549,333.460 290.251 C 333.460 289.953,333.716 289.612,334.028 289.492 C 334.341 289.372,334.502 289.121,334.386 288.934 C 334.270 288.746,334.827 288.581,335.624 288.566 C 336.421 288.551,338.384 288.419,339.987 288.273 C 341.591 288.127,342.821 288.139,342.722 288.300 C 342.622 288.461,343.107 288.591,343.799 288.587 C 344.745 288.583,344.915 288.491,344.487 288.218 C 344.098 287.970,344.390 287.930,345.401 288.093 C 346.406 288.254,346.805 288.201,346.637 287.928 C 346.477 287.669,346.682 287.601,347.207 287.738 C 347.724 287.873,347.937 287.806,347.782 287.556 C 347.496 287.093,348.714 286.705,350.475 286.697 C 351.318 286.694,351.711 286.511,351.711 286.122 C 351.711 285.808,352.010 285.554,352.376 285.557 C 352.935 285.562,352.952 285.620,352.482 285.917 C 351.426 286.585,352.282 286.539,353.612 285.856 C 354.344 285.480,354.686 285.167,354.373 285.160 C 353.392 285.139,354.922 284.419,356.148 284.324 C 357.120 284.249,359.192 282.893,358.342 282.888 C 358.145 282.887,358.498 282.570,359.125 282.185 C 359.825 281.755,360.361 281.630,360.512 281.861 C 360.648 282.068,361.161 281.617,361.653 280.857 C 362.145 280.098,362.772 279.475,363.045 279.472 C 363.319 279.470,363.437 279.297,363.308 279.088 C 363.179 278.879,363.685 278.347,364.434 277.905 C 365.182 277.464,365.763 276.908,365.726 276.669 C 365.689 276.431,366.032 275.466,366.490 274.525 C 366.947 273.584,367.228 273.156,367.116 273.574 C 366.944 274.209,367.033 274.178,367.655 273.384 C 368.445 272.376,368.918 271.102,368.501 271.104 C 368.363 271.104,368.309 269.883,368.379 268.390 C 368.472 266.424,368.367 265.586,367.999 265.353 C 367.607 265.104,367.601 265.029,367.975 265.025 C 368.331 265.021,368.294 264.769,367.838 264.072 C 367.497 263.551,367.083 263.207,366.918 263.309 C 366.635 263.484,366.081 262.609,365.955 261.787 C 365.922 261.578,365.766 261.107,365.607 260.741 C 365.209 259.824,365.660 258.808,366.348 259.072 C 366.658 259.191,366.870 259.102,366.821 258.874 C 366.771 258.646,366.968 258.374,367.258 258.268 C 367.579 258.152,367.683 258.243,367.524 258.501 C 367.357 258.772,367.475 258.844,367.849 258.701 C 368.172 258.577,368.357 258.347,368.260 258.189 C 368.088 257.912,369.813 256.923,371.222 256.491 C 371.601 256.374,371.806 256.109,371.677 255.901 C 371.540 255.679,371.698 255.620,372.056 255.757 C 372.478 255.919,372.737 255.733,372.886 255.161 C 373.011 254.685,373.314 254.410,373.596 254.519 C 374.128 254.723,375.041 253.875,374.679 253.513 C 374.487 253.321,375.909 252.331,376.429 252.295 C 376.535 252.287,377.277 251.597,378.078 250.760 C 378.880 249.924,379.408 249.480,379.253 249.774 C 379.066 250.126,379.119 250.215,379.409 250.036 C 379.650 249.887,379.846 249.561,379.844 249.312 C 379.843 249.063,380.399 248.374,381.080 247.782 C 381.762 247.189,382.106 246.814,381.844 246.949 C 381.191 247.285,381.249 247.027,382.034 246.098 C 382.400 245.665,383.008 244.942,383.385 244.491 C 384.340 243.348,384.827 241.922,384.598 240.943 C 384.491 240.487,384.335 238.497,384.251 236.522 C 384.145 234.036,383.935 232.806,383.567 232.529 C 383.275 232.309,382.233 231.139,381.252 229.928 C 380.270 228.718,379.468 227.852,379.468 228.005 C 379.468 228.157,379.237 227.967,378.955 227.581 C 378.673 227.196,378.271 226.986,378.062 227.115 C 377.824 227.262,377.651 226.323,377.601 224.607 C 377.541 222.567,377.343 221.668,376.829 221.103 C 376.053 220.250,375.086 214.598,375.478 213.203 C 375.641 212.623,375.605 212.517,375.363 212.865 C 375.077 213.276,374.967 213.258,374.780 212.770 C 374.653 212.438,374.726 212.167,374.942 212.167 C 375.397 212.167,375.025 210.740,374.379 210.012 C 373.046 208.507,372.852 208.123,372.852 206.993 C 372.852 206.311,372.717 205.836,372.552 205.938 C 372.387 206.040,372.342 205.889,372.452 205.603 C 372.561 205.317,372.217 204.615,371.687 204.043 C 371.156 203.471,370.722 202.669,370.722 202.262 C 370.722 201.854,370.380 201.179,369.962 200.760 C 369.544 200.342,369.294 200.000,369.406 200.000 C 369.519 200.000,369.268 199.632,368.849 199.182 C 368.430 198.732,368.184 198.207,368.303 198.015 C 368.422 197.823,367.970 197.176,367.300 196.578 C 366.548 195.906,366.192 195.312,366.370 195.025 C 366.547 194.738,366.499 194.657,366.245 194.814 C 366.018 194.955,365.725 194.896,365.593 194.683 C 365.462 194.470,365.565 194.297,365.823 194.297 C 366.084 194.297,365.900 193.879,365.410 193.358 C 364.925 192.841,364.400 192.498,364.243 192.595 C 364.086 192.692,363.856 192.507,363.732 192.183 C 363.582 191.791,363.664 191.682,363.978 191.855 C 364.237 191.998,363.593 191.296,362.548 190.296 C 361.502 189.296,360.860 188.599,361.122 188.748 C 361.830 189.151,361.696 188.387,360.954 187.784 C 360.516 187.430,360.402 187.415,360.596 187.738 C 360.753 187.999,360.800 188.213,360.700 188.213 C 360.600 188.213,360.148 187.613,359.694 186.880 C 359.241 186.147,358.710 185.646,358.513 185.767 C 358.317 185.889,358.202 185.847,358.258 185.675 C 358.413 185.195,357.309 183.822,356.535 183.533 C 356.156 183.391,355.951 183.105,356.079 182.897 C 356.208 182.689,356.090 182.596,355.818 182.691 C 355.546 182.786,354.734 182.110,354.013 181.189 C 353.292 180.268,352.567 179.599,352.401 179.701 C 352.236 179.804,352.202 179.622,352.326 179.297 C 352.455 178.962,352.352 178.707,352.088 178.707 C 351.833 178.707,351.011 178.066,350.262 177.281 C 349.513 176.497,349.126 176.155,349.402 176.521 C 349.684 176.896,349.734 177.186,349.517 177.186 C 349.305 177.186,349.040 176.948,348.928 176.658 C 348.659 175.956,350.025 174.525,350.965 174.525 C 351.375 174.525,351.711 174.268,351.711 173.954 C 351.711 173.641,351.892 173.384,352.114 173.384 C 352.335 173.384,352.410 173.556,352.280 173.767 C 352.141 173.992,352.442 173.968,353.006 173.712 C 353.535 173.470,353.886 173.139,353.785 172.976 C 353.614 172.699,354.844 172.101,355.703 172.043 C 356.405 171.997,357.788 171.084,357.696 170.728 C 357.646 170.535,358.246 170.045,359.030 169.640 C 359.865 169.209,360.456 169.075,360.456 169.319 C 360.456 169.881,361.126 169.180,361.285 168.451 C 361.444 167.720,362.850 166.949,363.168 167.417 C 363.300 167.612,363.803 167.237,364.285 166.585 C 364.768 165.933,365.366 165.399,365.614 165.399 C 365.863 165.399,366.301 165.100,366.588 164.734 C 367.071 164.118,367.055 164.111,366.372 164.639 C 365.938 164.974,365.751 165.014,365.918 164.736 C 366.336 164.039,367.867 163.255,367.481 163.935 C 367.320 164.218,367.898 163.772,368.765 162.946 C 370.408 161.380,370.669 161.013,369.867 161.402 C 369.606 161.529,369.817 161.325,370.336 160.949 C 371.552 160.071,373.721 158.035,373.103 158.352 C 372.792 158.512,372.709 158.394,372.859 158.005 C 372.983 157.680,373.267 157.414,373.490 157.414 C 374.150 157.414,375.248 156.240,375.056 155.740 C 374.959 155.485,375.474 154.664,376.201 153.916 C 376.928 153.167,377.418 152.450,377.291 152.323 C 377.164 152.195,377.254 152.091,377.491 152.091 C 377.729 152.091,377.824 151.835,377.704 151.521 C 377.584 151.207,377.675 150.951,377.906 150.951 C 378.138 150.951,378.656 150.621,379.059 150.219 C 380.191 149.087,381.366 148.536,381.381 149.131 C 381.388 149.437,381.589 149.361,381.917 148.929 C 382.205 148.549,382.499 148.282,382.570 148.336 C 382.812 148.518,383.976 147.721,383.978 147.372 C 383.978 147.181,384.510 146.802,385.160 146.529 C 385.810 146.255,386.239 146.197,386.114 146.400 C 385.692 147.082,386.494 146.774,387.643 145.812 C 389.699 144.089,391.635 142.168,391.635 141.850 C 391.635 141.678,391.895 141.322,392.214 141.058 C 392.567 140.764,392.699 140.283,392.553 139.823 C 392.406 139.357,392.462 139.160,392.701 139.308 C 392.943 139.457,393.137 138.687,393.217 137.259 C 393.316 135.498,393.232 135.015,392.851 135.162 C 392.579 135.267,392.463 135.179,392.594 134.967 C 392.726 134.754,393.057 134.628,393.330 134.686 C 393.604 134.744,394.489 134.094,395.298 133.243 C 396.106 132.391,396.515 132.049,396.206 132.482 C 395.897 132.915,396.268 132.693,397.032 131.988 C 397.795 131.284,398.522 130.301,398.646 129.804 C 398.771 129.308,399.084 128.944,399.341 128.995 C 399.694 129.064,399.820 127.723,399.849 123.574 C 399.890 117.803,399.779 116.587,399.240 116.920 C 398.901 117.130,398.310 115.820,398.297 114.829 C 398.292 114.515,397.900 114.088,397.424 113.879 C 396.485 113.467,396.426 112.357,397.344 112.357 C 397.793 112.357,397.933 111.653,398.027 108.903 L 398.145 105.449 396.784 104.411 C 396.035 103.840,395.527 103.204,395.655 102.997 C 395.783 102.791,395.369 102.426,394.737 102.188 C 394.104 101.949,393.505 101.444,393.407 101.067 C 393.308 100.689,393.030 100.380,392.789 100.380 C 392.548 100.380,392.446 100.535,392.564 100.725 C 392.681 100.914,392.361 100.873,391.853 100.634 C 391.345 100.394,391.000 100.128,391.085 100.043 C 391.252 99.876,389.883 98.596,389.334 98.404 C 389.152 98.341,388.977 96.540,388.944 94.401 C 388.902 91.614,388.736 90.390,388.359 90.077 C 388.069 89.837,387.833 89.768,387.833 89.924 C 387.833 90.080,387.568 89.988,387.245 89.719 C 386.922 89.451,386.739 89.019,386.839 88.758 C 387.061 88.181,386.019 87.202,384.981 87.011 C 384.563 86.934,384.216 86.617,384.211 86.307 C 384.206 85.996,383.909 85.765,383.550 85.794 C 383.191 85.822,382.981 85.712,383.082 85.548 C 383.291 85.210,382.139 84.606,381.003 84.458 C 380.802 84.432,380.332 84.091,379.958 83.701 C 379.584 83.310,378.645 82.787,377.872 82.537 C 376.549 82.110,376.457 81.978,376.324 80.300 L 376.183 78.517 376.114 80.485 C 376.059 82.076,376.173 82.487,376.711 82.628 C 377.212 82.758,377.165 82.812,376.521 82.846 C 375.736 82.886,375.290 80.314,375.600 77.531 C 375.614 77.407,374.840 76.552,373.880 75.630 C 372.919 74.708,372.254 74.168,372.401 74.430 C 372.769 75.083,372.311 75.027,371.619 74.335 C 371.305 74.021,371.146 73.764,371.266 73.764 C 371.759 73.764,369.976 72.302,369.331 72.178 C 368.946 72.103,368.631 71.789,368.630 71.478 C 368.630 71.167,368.292 70.912,367.881 70.912 C 367.469 70.911,366.926 70.497,366.674 69.992 C 366.422 69.486,365.923 68.909,365.565 68.709 C 365.087 68.442,364.990 68.467,365.199 68.805 C 365.373 69.087,365.026 69.028,364.300 68.653 C 363.650 68.316,363.118 67.950,363.118 67.839 C 363.118 67.727,363.332 67.750,363.593 67.890 C 363.855 68.030,363.555 67.712,362.928 67.183 C 362.300 66.654,361.732 66.374,361.664 66.561 C 361.526 66.940,359.737 65.898,359.088 65.061 C 358.838 64.738,358.471 64.646,358.174 64.830 C 357.850 65.030,357.769 64.988,357.943 64.707 C 358.114 64.430,357.597 64.124,356.485 63.844 C 355.538 63.605,354.858 63.255,354.975 63.066 C 355.092 62.877,354.582 62.469,353.842 62.159 C 352.313 61.521,351.623 61.429,352.471 61.977 C 352.785 62.180,352.861 62.348,352.639 62.352 C 352.418 62.355,351.904 62.106,351.499 61.799 C 351.093 61.492,350.547 61.235,350.285 61.229 C 350.024 61.222,349.452 60.859,349.014 60.421 C 348.542 59.949,347.923 59.703,347.493 59.815 C 347.094 59.920,346.863 59.850,346.980 59.660 C 347.097 59.471,347.012 59.316,346.791 59.316 C 346.569 59.316,346.388 59.482,346.388 59.686 C 346.388 59.927,346.046 59.927,345.413 59.686 C 344.876 59.482,344.082 59.316,343.648 59.316 C 343.214 59.316,342.665 59.049,342.427 58.724 C 342.189 58.399,341.742 58.082,341.434 58.021 C 339.871 57.710,339.599 57.368,339.794 55.959 C 339.927 54.996,339.873 54.725,339.619 55.085 C 339.275 55.573,338.753 52.015,338.566 47.909 C 338.482 46.078,337.993 44.680,337.637 45.255 C 337.474 45.519,337.165 44.906,336.896 43.785 C 336.642 42.727,336.562 41.656,336.717 41.404 C 336.907 41.096,336.838 41.047,336.505 41.253 C 336.127 41.486,336.070 41.322,336.264 40.551 C 336.420 39.928,336.360 39.544,336.106 39.544 C 335.881 39.544,335.802 39.373,335.932 39.163 C 336.061 38.954,335.975 38.783,335.741 38.783 C 335.508 38.783,335.440 38.583,335.591 38.338 C 335.767 38.054,335.670 37.969,335.321 38.103 C 334.955 38.243,334.570 37.828,334.147 36.836 C 333.800 36.025,333.681 35.361,333.882 35.361 C 334.417 35.361,333.553 33.906,332.277 32.658 C 331.169 31.575,330.815 30.909,331.608 31.399 C 331.871 31.562,331.963 31.460,331.846 31.137 C 331.740 30.846,331.453 30.654,331.208 30.709 C 330.963 30.765,330.813 30.587,330.875 30.315 C 330.938 30.042,330.439 29.281,329.767 28.624 C 329.096 27.968,328.729 27.369,328.953 27.294 C 329.184 27.218,329.063 26.916,328.676 26.602 C 328.121 26.151,328.052 26.147,328.313 26.580 C 328.523 26.929,328.492 27.026,328.223 26.860 C 327.997 26.720,327.615 26.009,327.375 25.280 C 326.981 24.088,326.777 23.893,326.011 23.980 C 325.627 24.023,324.740 22.656,324.727 22.002 C 324.720 21.660,324.266 21.086,323.717 20.727 C 323.038 20.281,322.806 20.237,322.991 20.588 C 323.140 20.871,322.645 20.461,321.892 19.677 C 321.138 18.893,320.363 18.251,320.169 18.251 C 319.975 18.251,319.695 18.053,319.545 17.812 C 319.366 17.522,319.443 17.477,319.772 17.681 C 320.101 17.884,320.178 17.840,319.998 17.549 C 319.849 17.308,319.522 17.110,319.271 17.110 C 319.020 17.110,318.603 16.773,318.346 16.360 C 318.088 15.948,317.647 15.699,317.365 15.807 C 317.083 15.916,316.611 15.707,316.316 15.344 C 315.849 14.769,315.854 14.721,316.350 14.974 C 316.663 15.133,316.417 14.834,315.802 14.309 C 315.186 13.783,314.560 13.429,314.410 13.522 C 313.923 13.823,312.928 13.242,312.928 12.656 C 312.928 12.297,312.709 12.170,312.338 12.312 C 312.013 12.437,311.841 12.388,311.955 12.203 C 312.069 12.018,311.898 11.765,311.575 11.641 C 311.238 11.512,311.086 11.576,311.219 11.791 C 311.347 11.998,311.271 12.167,311.049 12.167 C 310.828 12.167,310.646 11.911,310.646 11.597 C 310.646 11.283,310.518 11.061,310.361 11.102 C 309.798 11.251,308.365 10.587,308.365 10.177 C 308.365 9.947,308.254 9.871,308.117 10.007 C 307.981 10.143,307.682 10.018,307.452 9.728 C 307.222 9.439,306.606 9.088,306.084 8.949 C 305.319 8.745,305.244 8.781,305.703 9.131 C 306.156 9.477,306.038 9.515,305.137 9.316 C 304.512 9.178,303.913 8.933,303.806 8.772 C 303.529 8.353,301.765 7.428,301.426 7.524 C 301.269 7.568,301.141 7.415,301.141 7.183 C 301.141 6.920,300.772 6.854,300.158 7.008 C 299.521 7.168,299.262 7.116,299.420 6.859 C 299.555 6.642,299.498 6.464,299.294 6.464 C 299.090 6.464,298.866 6.593,298.796 6.751 C 298.726 6.909,297.129 6.757,295.247 6.412 C 293.365 6.067,292.324 5.766,292.934 5.744 C 295.245 5.660,292.481 4.886,289.639 4.822 C 288.855 4.804,288.213 4.653,288.213 4.486 C 288.213 4.319,287.443 4.183,286.502 4.183 C 285.561 4.183,284.791 4.317,284.791 4.480 C 284.791 4.644,283.165 4.773,281.179 4.766 C 279.192 4.759,277.567 4.625,277.567 4.468 C 277.567 4.311,276.968 4.183,276.236 4.183 C 275.504 4.183,274.905 4.343,274.905 4.539 C 274.905 4.735,274.306 4.798,273.574 4.679 C 272.654 4.530,272.243 4.608,272.243 4.934 C 272.243 5.196,271.991 5.308,271.673 5.186 C 271.359 5.065,270.803 5.082,270.437 5.223 C 269.871 5.440,269.913 5.522,270.722 5.775 C 271.387 5.982,271.164 6.024,269.982 5.913 C 269.052 5.827,268.496 5.882,268.746 6.037 C 269.002 6.195,268.212 6.483,266.947 6.692 C 265.707 6.897,264.776 6.930,264.878 6.764 C 264.980 6.599,264.787 6.464,264.449 6.464 C 264.110 6.464,263.932 6.623,264.052 6.818 C 264.173 7.013,264.097 7.279,263.885 7.411 C 263.672 7.542,263.498 7.457,263.498 7.221 C 263.498 6.653,262.189 7.082,260.320 8.261 C 259.290 8.911,258.554 9.118,257.848 8.955 C 257.062 8.773,256.968 8.812,257.414 9.137 C 257.854 9.457,257.712 9.498,256.796 9.319 C 255.963 9.155,255.423 9.270,254.990 9.703 C 254.650 10.043,254.373 10.210,254.373 10.076 C 254.373 9.942,254.104 10.100,253.775 10.429 C 253.248 10.956,252.118 11.205,251.494 10.932 C 251.375 10.879,251.110 11.136,250.905 11.502 C 250.700 11.868,250.327 12.165,250.076 12.161 C 249.797 12.158,249.841 12.013,250.190 11.787 C 250.697 11.459,250.697 11.419,250.190 11.426 C 249.528 11.435,247.532 12.507,248.099 12.549 C 248.308 12.565,247.890 12.833,247.170 13.145 C 246.450 13.458,245.634 13.626,245.357 13.520 C 245.081 13.414,244.301 13.678,243.625 14.107 C 242.537 14.798,242.505 14.863,243.346 14.672 C 243.984 14.527,243.860 14.659,242.966 15.073 C 242.234 15.413,241.165 15.710,240.590 15.735 C 240.016 15.759,239.545 15.918,239.545 16.087 C 239.544 16.256,239.388 16.298,239.198 16.181 C 238.667 15.853,237.643 16.366,237.643 16.960 C 237.643 17.549,235.243 18.692,235.046 18.196 C 234.880 17.777,232.992 18.777,231.714 19.961 C 231.149 20.484,230.499 20.910,230.268 20.907 C 230.037 20.904,230.105 20.735,230.418 20.532 C 231.319 19.950,230.497 20.092,229.259 20.732 C 228.642 21.051,228.137 21.452,228.137 21.622 C 228.137 22.036,226.301 22.856,225.001 23.023 C 224.208 23.125,223.648 22.841,222.681 21.845 C 221.404 20.530,220.637 20.116,221.131 21.008 C 221.275 21.269,220.827 20.884,220.136 20.152 C 219.444 19.420,218.634 18.876,218.336 18.942 C 218.031 19.010,217.904 18.885,218.045 18.657 C 218.183 18.433,218.115 18.230,217.893 18.203 C 217.672 18.177,217.319 18.113,217.110 18.061 C 216.901 18.009,216.485 17.944,216.186 17.918 C 215.887 17.892,215.587 17.486,215.521 17.015 C 215.444 16.473,215.155 16.179,214.734 16.213 C 214.368 16.242,214.068 16.103,214.068 15.905 C 214.068 15.707,213.899 15.649,213.691 15.778 C 213.224 16.066,212.068 15.457,212.185 14.985 C 212.232 14.795,211.906 14.470,211.459 14.263 C 211.012 14.057,210.646 13.747,210.646 13.576 C 210.646 13.404,210.479 13.366,210.275 13.493 C 210.071 13.619,209.429 13.465,208.849 13.150 C 208.269 12.835,207.966 12.564,208.175 12.547 C 208.780 12.497,205.965 11.060,205.228 11.043 C 204.862 11.034,204.214 10.678,203.788 10.252 C 203.363 9.826,202.823 9.596,202.589 9.741 C 202.346 9.891,202.269 9.833,202.411 9.604 C 202.546 9.385,202.388 9.102,202.058 8.975 C 201.143 8.624,200.885 8.711,201.521 9.156 C 201.957 9.461,201.871 9.493,201.158 9.290 C 200.645 9.144,200.010 8.834,199.746 8.600 C 198.489 7.487,198.163 7.287,197.949 7.501 C 197.822 7.628,197.719 7.513,197.719 7.247 C 197.719 6.966,197.471 6.858,197.129 6.989 C 196.743 7.137,196.633 7.063,196.811 6.775 C 196.996 6.476,196.868 6.417,196.410 6.593 C 195.506 6.940,192.576 6.064,193.237 5.645 C 193.603 5.413,193.566 5.333,193.093 5.329 C 192.744 5.326,192.398 5.141,192.324 4.918 C 192.250 4.696,191.423 4.457,190.486 4.389 C 188.146 4.218,186.654 3.791,186.917 3.366 C 187.045 3.159,186.688 3.109,186.058 3.247 C 185.332 3.407,185.146 3.367,185.488 3.125 C 185.879 2.850,185.791 2.712,185.108 2.529 C 183.853 2.193,183.317 2.273,184.221 2.662 C 184.806 2.913,184.838 2.995,184.362 3.015 C 184.022 3.030,183.532 2.787,183.273 2.476 C 183.015 2.164,182.689 1.980,182.549 2.067 C 182.090 2.351,178.707 1.469,178.707 1.066 C 178.707 0.849,178.365 0.761,177.946 0.871 C 177.468 0.996,177.278 0.920,177.435 0.666 C 177.604 0.392,177.204 0.339,176.200 0.500 C 175.286 0.647,174.921 0.610,175.251 0.404 C 175.565 0.209,169.513 0.071,160.650 0.072 C 151.094 0.074,145.710 0.206,146.046 0.432 M171.863 2.913 C 187.742 5.049,206.153 13.087,221.568 24.615 C 227.607 29.130,235.463 46.759,236.397 57.890 C 236.650 60.912,236.771 60.869,233.458 58.934 C 222.536 52.555,202.437 44.181,193.404 42.246 C 178.325 39.015,162.352 39.507,151.068 43.549 C 140.275 47.416,120.971 58.556,120.601 61.131 C 120.404 62.501,121.273 62.159,125.307 59.277 C 155.590 37.642,181.591 36.195,219.838 54.018 C 230.867 59.158,236.868 62.669,238.558 64.971 C 240.260 67.290,245.039 71.833,248.602 74.518 C 252.002 77.081,252.049 77.067,244.433 75.842 C 223.656 72.501,187.169 74.800,171.483 80.438 C 167.225 81.968,165.666 82.852,160.496 86.662 C 150.161 94.278,139.732 99.187,131.369 100.374 C 125.148 101.256,124.905 101.313,124.905 101.901 C 124.905 102.660,128.218 102.853,131.556 102.290 C 140.629 100.759,151.663 95.543,161.540 88.115 C 168.300 83.032,174.227 80.746,185.440 78.902 C 205.504 75.600,229.766 75.174,246.110 77.835 L 255.148 79.307 257.491 81.003 C 263.483 85.341,265.139 87.233,264.802 89.354 C 264.453 91.544,263.451 93.981,262.982 93.778 C 253.050 89.476,244.576 87.210,233.080 85.782 C 217.131 83.802,197.803 83.551,191.357 85.240 C 183.219 87.373,175.408 90.993,159.538 99.986 C 139.913 111.106,141.289 110.646,127.653 110.649 C 113.854 110.651,113.335 110.796,112.480 114.872 C 111.177 121.085,114.100 123.402,123.620 123.698 C 127.674 123.825,130.557 124.157,134.266 124.926 L 139.354 125.981 143.359 128.898 C 161.918 142.415,173.846 148.449,184.615 149.770 C 190.036 150.435,223.061 150.326,227.664 149.628 C 245.002 147.000,261.930 141.490,267.204 136.758 C 268.203 135.861,268.078 135.772,269.346 138.295 C 270.090 139.776,270.342 140.857,270.342 142.559 L 270.342 144.839 264.734 149.983 L 259.125 155.128 255.323 155.133 C 250.694 155.138,249.349 155.489,245.608 157.662 L 242.698 159.353 215.170 159.208 C 185.141 159.049,187.685 159.217,176.122 156.639 C 164.845 154.125,153.589 149.700,145.842 144.734 C 141.725 142.096,140.408 143.604,144.464 146.312 C 153.263 152.188,167.003 157.183,181.862 159.907 L 189.009 161.217 216.394 161.217 L 243.779 161.217 246.700 159.421 L 249.620 157.626 254.563 157.425 C 260.379 157.189,259.368 157.732,266.980 150.756 L 272.624 145.584 272.624 143.679 C 272.624 142.041,272.717 141.802,273.289 141.977 C 275.480 142.646,289.479 144.722,305.513 146.755 C 325.456 149.285,362.412 145.385,383.248 138.552 C 386.686 137.424,389.552 136.502,389.617 136.502 C 389.681 136.502,389.733 137.229,389.732 138.118 C 389.730 140.977,388.942 141.717,382.000 145.377 L 375.677 148.710 374.436 151.219 C 370.972 158.220,361.897 165.741,349.154 172.173 C 345.970 173.780,342.976 175.297,342.500 175.545 C 337.919 177.925,315.892 179.672,301.887 178.766 L 295.599 178.359 291.241 176.298 C 281.478 171.680,278.231 170.638,278.028 172.054 C 277.935 172.698,278.430 172.986,281.260 173.934 C 283.097 174.550,290.112 177.827,296.848 181.215 C 307.203 186.424,309.166 187.291,309.551 186.828 C 310.154 186.101,310.046 186.018,304.948 183.294 C 302.545 182.010,300.458 180.838,300.310 180.689 C 300.161 180.540,305.891 180.416,313.043 180.413 C 327.555 180.406,332.621 179.946,340.795 177.888 L 345.295 176.756 348.218 179.318 C 364.182 193.312,374.144 210.700,374.144 224.570 L 374.144 226.953 370.382 229.065 C 343.491 244.158,317.423 247.887,262.738 244.463 C 253.315 243.873,234.223 240.934,183.840 232.316 C 178.739 231.443,162.747 228.440,157.795 227.424 C 136.062 222.968,120.625 227.939,112.026 242.163 C 106.440 251.405,106.368 259.587,111.821 265.555 C 115.823 269.933,117.494 270.174,138.783 269.436 C 145.699 269.196,149.242 269.224,151.141 269.533 C 154.106 270.015,162.292 271.496,173.194 273.524 C 227.146 283.556,219.977 282.659,261.787 284.610 C 315.795 287.130,330.990 287.861,331.319 287.957 C 332.321 288.248,322.159 296.605,315.970 300.581 C 304.124 308.190,285.586 316.673,278.203 317.865 C 273.326 318.651,270.257 320.270,269.901 322.243 C 269.773 322.950,269.373 323.020,264.254 323.230 C 261.132 323.358,256.274 323.880,253.042 324.434 C 242.148 326.304,242.321 326.299,197.909 326.126 C 154.308 325.955,155.152 325.982,136.678 324.155 C 105.459 321.067,69.954 313.194,45.817 304.007 C 33.179 299.197,17.695 291.853,16.347 290.029 C 14.915 288.092,8.945 278.995,7.801 277.007 C 6.653 275.013,4.481 261.055,3.450 249.049 C 3.226 246.435,2.955 243.270,2.848 242.015 C 0.588 215.399,3.740 176.698,9.360 162.050 C 17.608 140.552,31.013 114.354,38.584 104.934 C 42.509 100.051,53.335 93.897,60.932 92.230 C 62.209 91.950,62.234 91.122,60.669 100.825 C 57.956 117.639,57.476 123.692,58.840 123.886 C 59.620 123.996,59.696 123.854,59.696 122.284 C 59.696 117.083,63.438 93.380,64.956 88.973 C 69.820 74.844,78.416 58.071,87.172 45.627 C 110.226 12.860,138.773 -1.537,171.863 2.913 M137.072 3.042 C 136.654 3.222,136.055 3.369,135.741 3.369 C 135.382 3.369,135.452 3.248,135.932 3.042 C 136.350 2.862,136.949 2.715,137.262 2.715 C 137.622 2.715,137.552 2.836,137.072 3.042 M289.924 8.024 C 308.699 10.296,323.717 20.966,331.756 37.745 C 334.711 43.913,337.129 53.102,336.809 56.951 L 336.692 58.365 334.470 58.480 C 332.766 58.568,331.468 58.325,328.896 57.434 C 325.814 56.367,325.134 56.273,320.471 56.269 C 316.124 56.265,314.976 56.129,312.438 55.318 L 309.477 54.373 291.498 54.373 C 271.295 54.373,258.038 55.266,242.844 57.650 C 238.567 58.321,238.024 58.221,238.019 56.761 C 238.002 51.460,233.211 38.129,228.360 29.888 C 227.192 27.902,226.236 26.176,226.236 26.052 C 226.236 25.928,229.444 24.247,233.365 22.316 C 251.580 13.345,265.130 8.831,277.947 7.464 C 279.751 7.272,286.202 7.573,289.924 8.024 M312.167 57.414 C 315.144 58.456,315.813 58.545,320.635 58.550 C 325.232 58.555,326.201 58.671,328.591 59.506 C 330.663 60.230,332.089 60.458,334.572 60.465 C 347.130 60.496,373.384 74.436,373.384 81.072 C 373.384 82.767,373.616 82.735,368.440 81.749 C 347.594 77.777,319.086 76.418,307.034 78.823 C 299.108 80.404,271.914 87.734,267.205 89.557 C 266.635 89.779,266.540 89.582,266.540 88.173 C 266.540 85.961,263.744 83.251,254.752 76.744 C 247.543 71.527,243.025 67.781,241.192 65.501 C 239.964 63.973,238.248 60.864,238.496 60.616 C 239.037 60.076,257.060 57.861,271.673 56.539 C 272.510 56.464,281.236 56.375,291.065 56.343 L 308.935 56.284 312.167 57.414 M343.008 80.424 C 369.163 83.000,379.898 85.569,384.400 90.329 L 386.312 92.350 386.312 95.393 L 386.312 98.436 382.414 96.704 C 371.948 92.054,362.558 89.304,354.753 88.604 C 352.139 88.369,346.835 87.807,342.966 87.355 C 324.150 85.157,313.802 86.460,276.996 95.659 C 267.919 97.928,267.681 98.011,267.681 98.889 C 267.681 99.873,267.155 99.960,279.228 96.978 C 291.309 93.995,300.298 91.969,310.837 89.853 C 322.588 87.494,339.738 87.938,359.506 91.113 C 373.247 93.320,395.817 103.894,395.817 108.124 C 395.817 110.631,394.300 112.076,392.776 111.020 C 385.761 106.161,371.859 102.656,359.647 102.667 C 336.011 102.689,305.389 107.242,281.423 114.296 C 278.211 115.241,275.543 115.962,275.493 115.897 C 275.443 115.832,274.939 114.496,274.375 112.928 C 271.649 105.358,271.721 105.395,259.506 105.362 C 251.619 105.340,247.741 105.511,234.664 106.455 C 228.041 106.934,218.802 108.718,207.034 111.791 C 163.814 123.077,147.348 125.693,134.920 123.244 C 130.927 122.458,127.288 122.014,123.384 121.838 C 115.457 121.481,113.847 120.498,114.155 116.198 C 114.422 112.462,114.126 112.548,126.768 112.548 C 140.819 112.548,141.263 112.424,154.753 104.765 C 167.229 97.682,169.549 96.409,174.525 93.918 C 189.733 86.304,195.515 85.106,213.118 85.924 C 235.086 86.945,251.394 90.077,261.558 95.227 C 263.871 96.400,264.161 96.285,265.413 93.698 C 266.317 91.830,265.064 92.364,276.877 88.815 C 287.755 85.548,303.243 81.561,309.337 80.461 C 313.686 79.676,335.172 79.653,343.008 80.424 M371.483 105.489 C 385.007 108.015,394.934 112.920,396.692 117.946 C 399.211 125.145,398.343 127.540,391.156 133.226 C 388.725 135.149,375.512 139.925,374.771 139.148 C 374.679 139.052,374.318 137.006,373.968 134.601 C 371.437 117.217,360.105 107.485,342.395 107.485 C 322.432 107.485,311.787 119.731,311.787 142.697 C 311.787 146.085,311.921 145.933,309.226 145.591 C 308.021 145.437,302.842 144.782,297.719 144.135 C 273.576 141.083,271.758 140.570,270.145 136.347 L 269.466 134.568 271.200 130.877 C 273.358 126.285,274.090 124.284,274.872 120.839 L 275.488 118.129 277.573 117.409 C 303.645 108.401,353.316 102.097,371.483 105.489 M268.916 107.244 C 270.567 107.703,270.945 108.308,272.829 113.514 C 274.631 118.493,273.941 122.141,269.557 130.798 C 267.411 135.038,266.017 136.248,259.874 139.207 C 254.207 141.936,254.536 142.037,252.891 137.072 C 246.396 117.465,230.996 110.187,209.125 116.388 C 194.168 120.629,188.129 128.125,188.097 142.490 L 188.084 148.289 186.462 148.289 C 177.917 148.289,164.061 141.789,148.203 130.340 C 141.800 125.717,141.953 126.006,145.730 125.695 C 160.554 124.476,171.688 122.431,192.776 117.054 C 225.831 108.626,225.961 108.602,245.247 107.241 C 251.533 106.797,267.314 106.799,268.916 107.244 M337.529 116.921 C 339.431 118.253,339.531 121.788,337.708 123.227 C 334.945 125.408,328.770 122.073,330.014 119.070 C 330.883 116.971,335.653 115.607,337.529 116.921 M212.032 120.774 C 214.305 121.852,215.134 124.769,213.806 127.016 C 211.356 131.164,204.196 127.571,205.718 122.958 C 206.488 120.625,209.513 119.579,212.032 120.774 M354.488 126.693 C 357.668 128.325,357.146 135.320,353.738 136.744 C 349.724 138.421,344.170 132.675,346.368 129.119 C 346.831 128.370,347.239 127.756,347.274 127.755 C 347.310 127.754,348.365 127.334,349.620 126.822 C 351.851 125.912,352.912 125.884,354.488 126.693 M232.580 130.442 C 238.369 132.630,236.042 140.684,229.620 140.684 C 225.744 140.684,222.732 134.698,225.380 132.259 C 227.822 130.009,229.987 129.463,232.580 130.442 M333.811 134.825 C 335.646 136.369,335.304 138.623,333.094 139.538 C 330.010 140.815,327.651 137.309,330.009 134.952 C 331.378 133.582,332.298 133.551,333.811 134.825 M213.443 140.856 C 215.343 142.618,214.257 145.247,211.628 145.247 C 209.804 145.247,209.180 144.934,208.541 143.699 C 207.031 140.780,210.924 138.522,213.443 140.856 M240.494 166.203 C 238.127 168.616,222.893 175.529,201.572 183.866 C 195.221 186.349,189.937 188.611,189.829 188.893 C 189.163 190.630,191.479 189.906,208.796 182.968 C 229.402 174.713,241.972 168.686,242.736 166.697 C 243.489 164.734,242.211 164.453,240.494 166.203 M2.924 178.612 C 2.828 178.978,2.750 178.679,2.750 177.947 C 2.750 177.215,2.828 176.915,2.924 177.281 C 3.019 177.647,3.019 178.246,2.924 178.612 M376.292 218.441 C 376.534 220.433,376.667 220.798,377.019 220.446 C 377.137 220.328,376.969 219.402,376.647 218.386 L 376.061 216.540 376.292 218.441 M152.539 228.313 C 154.279 228.604,158.869 229.458,162.738 230.213 C 184.796 234.512,234.375 242.822,252.281 245.221 C 268.184 247.351,308.551 248.150,321.713 246.594 C 337.797 244.693,354.040 239.586,369.451 231.583 C 375.395 228.497,376.167 228.481,378.974 231.396 C 385.799 238.483,379.592 249.266,364.199 257.061 C 363.017 257.660,361.990 258.327,361.918 258.544 C 361.845 258.761,358.217 259.538,353.855 260.271 C 332.269 263.899,302.064 265.389,273.194 264.252 C 267.966 264.046,261.122 263.784,257.985 263.671 C 245.794 263.230,222.230 259.998,192.776 254.727 C 172.559 251.109,165.043 249.744,162.469 249.223 C 158.628 248.447,134.714 248.415,133.661 249.185 C 131.457 250.796,132.631 250.951,147.111 250.951 C 157.527 250.951,161.404 251.080,163.378 251.496 C 164.803 251.795,168.964 252.567,172.624 253.210 C 176.283 253.854,181.587 254.814,184.411 255.345 C 202.310 258.708,233.723 263.590,245.437 264.828 C 277.427 268.209,347.570 265.930,361.217 261.067 C 362.370 260.656,365.779 266.327,365.779 268.657 C 365.779 270.824,363.712 274.691,361.221 277.182 C 354.197 284.206,341.780 287.061,323.882 285.766 C 322.354 285.656,319.049 285.476,316.540 285.366 C 314.030 285.256,306.759 284.916,300.380 284.610 C 288.270 284.029,285.438 283.897,271.673 283.277 C 222.603 281.066,227.454 281.478,206.274 277.723 C 190.644 274.953,184.299 273.799,170.913 271.293 C 150.922 267.551,151.438 267.626,145.437 267.557 C 142.300 267.520,135.371 267.643,130.038 267.830 C 119.024 268.216,117.495 268.002,114.398 265.637 C 110.904 262.969,108.620 256.473,109.708 252.297 C 114.498 233.907,130.933 224.704,152.539 228.313 M93.931 267.092 C 92.343 269.007,97.985 278.830,103.183 283.198 C 108.082 287.314,121.046 291.430,121.922 289.147 C 122.237 288.327,122.169 288.296,118.995 287.808 C 107.298 286.009,97.464 277.910,95.588 268.531 C 95.273 266.956,94.559 266.336,93.931 267.092 M339.829 288.861 C 340.299 288.952,341.069 288.952,341.540 288.861 C 342.010 288.771,341.625 288.697,340.684 288.697 C 339.743 288.697,339.358 288.771,339.829 288.861 M20.691 295.195 C 44.971 308.303,84.756 319.669,123.954 324.695 C 150.945 328.156,161.476 328.623,207.985 328.421 C 245.577 328.258,244.469 328.313,256.084 326.064 C 260.786 325.154,261.289 325.424,259.897 328.115 C 255.376 336.859,224.998 341.309,180.228 339.786 C 170.504 339.455,159.553 339.089,155.894 338.971 C 129.288 338.116,97.660 333.593,78.707 327.932 C 58.160 321.794,15.209 299.866,15.209 295.514 C 15.209 293.244,16.896 293.146,20.691 295.195 M15.293 299.006 C 20.653 304.142,44.038 316.495,65.779 325.675 C 78.939 331.232,102.217 336.265,127.186 338.952 C 151.656 341.585,205.206 342.989,222.433 341.448 C 247.047 339.248,261.384 334.004,262.338 326.852 L 262.548 325.285 266.160 325.285 L 269.772 325.285 269.887 327.079 L 270.003 328.872 275.971 332.935 C 295.972 346.552,304.964 354.099,309.730 361.268 C 311.659 364.170,317.862 376.667,317.867 377.662 C 317.871 378.295,310.250 378.323,161.502 378.232 L 5.133 378.137 5.036 338.343 L 4.939 298.548 7.698 298.113 C 9.215 297.874,10.713 297.621,11.027 297.552 C 12.868 297.147,13.620 297.403,15.293 299.006 "
            stroke="none" fill="#070808" fill-rule="evenodd"></path>
        <path
            d="M351.670 104.940 C 327.452 106.143,301.168 110.543,280.285 116.889 C 275.145 118.451,275.736 117.949,275.033 121.352 C 274.443 124.212,272.329 129.584,270.535 132.784 L 269.529 134.579 270.921 137.228 C 272.249 139.756,272.394 139.895,274.084 140.269 C 277.071 140.930,295.958 143.687,303.802 144.607 L 311.217 145.477 311.668 139.067 C 313.053 119.385,321.470 109.206,338.023 107.198 C 357.754 104.804,372.474 116.739,374.713 136.946 L 374.952 139.102 377.640 138.357 C 387.019 135.758,390.060 134.214,394.770 129.656 C 398.106 126.428,398.050 126.626,397.161 121.207 C 396.327 116.115,394.692 114.281,387.980 110.911 C 378.420 106.109,366.753 104.191,351.670 104.940 M263.760 107.089 C 263.707 107.142,260.161 107.225,255.881 107.273 C 234.160 107.515,226.693 108.650,197.529 116.149 C 172.531 122.576,159.569 125.114,148.669 125.716 C 142.645 126.048,142.659 125.980,147.804 129.738 C 163.338 141.087,177.712 147.909,186.088 147.909 L 187.698 147.909 187.692 142.490 C 187.675 125.466,198.236 116.172,219.962 114.091 C 236.282 112.529,249.035 121.867,253.813 138.878 C 254.540 141.467,254.345 141.433,258.285 139.657 C 267.473 135.515,271.735 129.812,273.347 119.504 C 273.892 116.020,271.327 108.351,269.412 107.739 C 268.559 107.467,263.916 106.933,263.760 107.089 M332.890 117.189 C 329.946 118.217,329.361 119.931,331.293 121.863 C 334.772 125.342,339.335 123.783,338.589 119.370 C 338.180 116.945,335.988 116.106,332.890 117.189 M207.523 121.123 C 204.180 122.937,206.241 128.517,210.255 128.517 C 212.711 128.517,214.038 127.214,214.056 124.785 C 214.082 121.261,210.730 119.382,207.523 121.123 M349.620 126.955 C 345.894 128.682,345.191 130.576,347.168 133.561 C 349.922 137.718,354.818 137.833,355.914 133.765 C 357.363 128.382,354.117 124.870,349.620 126.955 M228.327 130.548 C 224.791 132.149,223.930 134.259,225.494 137.491 C 227.480 141.593,232.805 141.378,234.944 137.111 C 236.966 133.076,232.508 128.655,228.327 130.548 M330.279 135.009 C 327.730 137.014,330.573 140.714,333.434 139.114 C 335.084 138.191,334.977 135.448,333.261 134.666 C 331.905 134.048,331.432 134.102,330.279 135.009 M209.125 141.065 C 208.107 142.083,208.168 143.022,209.334 144.280 C 211.034 146.114,214.068 144.995,214.068 142.534 C 214.068 140.485,210.705 139.485,209.125 141.065 "
            stroke="none" fill="#f9f8f8" fill-rule="evenodd"></path>
        <path
            d="M138.023 227.776 C 123.756 229.534,113.272 238.613,109.708 252.297 C 108.620 256.473,110.904 262.969,114.398 265.637 C 117.495 268.002,119.024 268.216,130.038 267.830 C 135.371 267.643,142.300 267.520,145.437 267.557 C 151.438 267.626,150.922 267.551,170.913 271.293 C 194.871 275.778,218.723 279.986,224.525 280.752 C 227.034 281.083,236.787 281.702,246.198 282.127 C 255.608 282.552,267.072 283.070,271.673 283.277 C 285.438 283.897,288.270 284.029,300.380 284.610 C 306.759 284.916,314.030 285.256,316.540 285.366 C 319.049 285.476,322.354 285.656,323.882 285.766 C 341.780 287.061,354.197 284.206,361.221 277.182 C 363.712 274.691,365.779 270.824,365.779 268.657 C 365.779 266.327,362.370 260.656,361.217 261.067 C 347.570 265.930,277.427 268.209,245.437 264.828 C 233.723 263.590,202.310 258.708,184.411 255.345 C 181.587 254.814,176.283 253.854,172.624 253.210 C 168.964 252.567,164.803 251.795,163.378 251.496 C 161.404 251.080,157.527 250.951,147.111 250.951 C 132.631 250.951,131.457 250.796,133.661 249.185 C 134.714 248.415,158.628 248.447,162.469 249.223 C 165.043 249.744,172.559 251.109,192.776 254.727 C 222.230 259.998,245.794 263.230,257.985 263.671 C 261.122 263.784,267.966 264.046,273.194 264.252 C 302.064 265.389,332.269 263.899,353.855 260.271 C 358.217 259.538,361.845 258.761,361.918 258.544 C 361.990 258.327,363.017 257.660,364.199 257.061 C 379.592 249.266,385.799 238.483,378.974 231.396 C 376.167 228.481,375.395 228.497,369.451 231.583 C 354.040 239.586,337.797 244.693,321.713 246.594 C 308.551 248.150,268.184 247.351,252.281 245.221 C 234.375 242.822,184.796 234.512,162.738 230.213 C 149.333 227.600,143.847 227.059,138.023 227.776 "
            stroke="none" fill="#a45b34" fill-rule="evenodd"></path>
    </g>
</svg>
